<svg enable-background="new 0 0 2704.055 2704.018" height="2704.018" viewBox="0 0 2704.055 2704.018" width="2704.055" xmlns="http://www.w3.org/2000/svg"><path d="m893.03 2513.365 85.238 30.089 57.142-157.843-85.22-30.089zm-129.095-267.897-62.396-41.938-20.567-13.825-61.781-41.585-107.744 148.9 82.35 55.391 79.034-109.179 44.9 30.184c15.073 10.152 11.365 40.168-11.683 43.074-23.027 2.943-48.552-9.781-48.552-9.781l18.631 101.074 92.597 62.303-15.519-84.156s57.011 5.719 78.566-24.035c31.208-43.169-26.679-88.723-67.836-116.427zm1713.601-777.572-46.948-10.602-21.428 93.23-21.368 93.156-21.407 93.155 46.951 10.658 21.425-93.193 129.169 29.195 21.37-93.231-129.151-29.158zm-1125.509-1467.896c-745.582 0-1352.027 606.407-1352.027 1352.028 0 745.451 606.445 1351.989 1352.027 1351.989 745.453 0 1352.027-606.538 1352.027-1351.989.001-745.621-606.574-1352.028-1352.027-1352.028zm0 2643.317c-712.083 0-1291.252-579.318-1291.252-1291.289v-.057h127.438c.037-46.857 2.758-93.77 8.459-140.254l-126.507-15.316c6.28-52.147 15.726-103.347 28.059-153.408l123.524 30.369c11.217-45.554 25.189-90.418 41.771-134.164l-118.829-45.088c18.612-48.887 40.058-96.36 64.24-142.154l112.347 59.153c21.853-41.622 46.149-81.772 72.848-120.208l-104.335-72.289c29.623-42.76 61.763-83.674 96.211-122.501l94.871 84.12c31.113-35.082 64.352-68.283 99.434-99.323l-84.156-94.963c38.845-34.449 79.76-66.606 122.537-96.229l72.213 104.297c38.528-26.549 78.697-50.938 120.189-72.811l-59.209-112.309c45.85-24.184 93.305-45.684 142.23-64.278l45.162 118.868c43.708-16.545 88.646-30.557 134.181-41.771l-30.387-123.581c50.024-12.334 101.186-21.742 153.298-28.058l15.295 126.561c46.522-5.682 93.492-8.514 140.367-8.514v-127.419c52.651 0 104.484 3.223 155.496 9.372l-15.258 126.561c46.559 5.422 92.745 13.898 138.299 25.078l30.369-123.581c50.9 12.538 100.607 28.096 148.956 46.484l-45.144 118.868c43.82 16.617 86.635 35.957 128.22 57.719l59.062-112.365c46.112 24.277 90.585 51.33 133.212 80.822l-72.083 104.354c38.491 26.68 75.4 55.782 110.612 86.896l84.12-94.926c38.865 34.431 75.586 71.189 110.053 110.073l-94.812 84.176c31.039 35.102 60.048 72.064 86.764 110.67l104.335-72.289c29.514 42.665 56.528 87.193 80.859 133.344l-112.363 59.153c21.724 41.509 41.081 84.269 57.681 128.089l118.903-45.125c18.41 48.311 33.966 98 46.523 148.92l-123.599 30.369c11.104 45.59 19.637 91.795 25.096 138.355l126.562-15.316c6.149 51.05 9.39 102.938 9.39 155.627.001 711.97-579.279 1291.288-1291.252 1291.288zm-851.779-639.962-14.682-19.302-43.933-57.795-186.852 57.516 58.632 77.095 149.46-46.056-90.864 123.152 58.594 77.115 113.576-153.932zm765.517 413.688c-81.51-6.373-151.731 30.964-156.763 83.411-5.048 52.41 56.957 99.976 138.449 106.385 81.53 6.334 151.694-30.929 156.744-83.413 5.067-52.409-56.937-100.011-138.43-106.383zm-11.868 122.815c-23.978-1.844-42.2-15.91-40.728-31.338 1.491-15.406 22.152-26.363 46.112-24.462 23.96 1.825 42.181 15.837 40.69 31.263-1.49 15.371-22.095 26.42-46.074 24.537zm1126.012-699.153c-45.46-29.399-91.329 28.096-119.089 68.917l-42.031 61.855-13.901 20.42-41.583 61.184 156.987 101.504 55.481-81.604-115.158-74.47 30.294-44.49c10.153-14.943 41.342-12.055 44.921 10.34 3.613 22.395-8.964 47.603-8.964 47.603l104.392-20.644 62.416-91.759-86.936 17.142c0-.001 4.584-55.727-26.829-75.998zm-363.177 355.612-19.711 14.59-58.93 43.765 65.449 177.274 78.644-58.314-52.372-141.857 131.088 83.449 78.623-58.354-163.824-104.279zm-170.68 121.979-107.37 34.283-54.852 104.576-28.561-77.879-95.392 30.463 61.24 166.879 95.373-30.424-28.579-77.916 112.047 51.197 107.353-34.281-120.096-54.867zm-1499.177-612.76-63.886-46.299 31.169-72.513-26.213-95.019-184.728 25.339 26.158 95.019 83.84-11.458-25.319 84.809 65.19 59.937-77.88 33.033 26.178 95.074 171.649-72.903zm1367.789-1078.074c26.812 10.023 53.23 7.695 67.26 5.217 21.799 10.824 45.684 24.313 70.426 40.951-10.676-3.316-23.363-5.814-37.3-5.403-40.001 1.081-58.018 24.668-58.018 24.668s19.825 22.543 59.881 21.444c29.681-.764 52.987-14.104 63.085-20.961 17.662 13.359 35.474 28.357 53.062 45.219-13.043-5.198-32.064-10.49-53.547-8.85-39.871 3.037-56.527 27.48-56.527 27.48s21.109 21.52 60.924 18.482c29.941-2.311 52.689-17.085 62.229-24.295 17.364 17.68 34.393 37.205 50.751 58.781-12.781-5.795-34.505-13.19-59.508-11.291-39.871 3.037-56.49 27.444-56.49 27.444s21.055 21.519 60.961 18.5c30.258-2.292 53.117-17.382 62.471-24.499 7.173 9.91 14.233 20.195 21.072 31.021l10.564-5.794c-14.851-23.457-30.648-44.846-47.025-64.502 8.402-8.719 26.512-30.611 30.536-60.364 5.18-39.032-18.109-60.72-18.109-60.72s-28.244 15.277-33.499 54.328c-2.534 19.266 1.51 36.816 6.26 49.615-15.277-16.992-30.928-32.475-46.689-46.578 5.553-10.061 17.551-36.088 13.042-66.457-5.812-39.088-34.282-54.459-34.282-54.459s-23.009 21.649-17.196 60.645c2.386 16.321 9.093 30.295 16.022 41.045-16.898-13.75-33.741-25.916-50.211-36.797 2.386-11.495 5.889-39.106-7.117-66.756-16.991-36.2-48.832-43.615-48.832-43.615s-15.725 26.643 1.285 62.843c4.304 9.13 9.856 17.048 15.727 23.811-10.1-5.701-19.899-10.825-29.346-15.482-8.421-10.881-26.027-29.698-52.932-39.759-39.273-14.625-67.295.969-67.295.969s9.092 29.474 48.365 44.119zm-712.585 259.588-72.941-24.742 24.742 72.885-45.981 61.762 76.946-1.117 44.453 62.937 22.769-73.538 73.537-22.785-62.881-44.436 1.025-77.002zm516.213 286.678c-22.449 0-52.949 11.83-52.949 138.969 0 127.029 33.107 129.674 52.949 129.674 19.862 0 43.71-14.513 43.71-129.674 0-106.048-13.267-138.969-43.71-138.969zm-2.644 105.918c-17.198 0-19.806-19.618-19.806-43.689 0-24.127 5.31-43.69 19.806-43.69 14.605 0 19.859 19.563 19.859 43.69.001 24.07-2.644 43.689-19.859 43.689zm-949.632 227.152c-16.768 20.717-23.456 44.193-26.083 58.874-9.055-27.331-15.837-54.087-20.756-79.983 12.073-3.951 38.753-14.98 58.895-39.759 26.753-33.033 20.66-64.521 20.66-64.521s-31.45-.187-58.239 32.847c-14.44 17.868-21.315 37.71-24.65 52.241-4.117-25.617-6.446-50.285-7.453-73.816 12.11-4.657 37.879-17.047 56.509-42.534 25.152-34.356 17.421-65.341 17.421-65.341s-31.524 1.454-56.657 35.865c-8.794 11.925-14.272 24.539-17.812 35.902.409-31.709 3.036-60.812 6.782-86.393 10.655-10.805 28.616-32.474 36.069-62.041 10.937-43.225-9.316-69.028-9.316-69.028s-30.61 15.128-41.547 58.371c-7.472 29.604-1.64 56.397 2.738 70.313-1.62 11.086-3.074 22.786-4.192 35.045-2.385-9.185-5.961-18.816-11.346-28.133-21.37-36.759-54.217-39.18-54.217-39.18s-12.743 32.379 8.626 69.158c16.359 28.095 42.61 41.752 54.143 46.596-.466 20.998 0 43.076 1.827 66.18-5.218-12.539-13.379-26.83-26.196-38.848-30.668-28.654-63.533-21.574-63.533-21.574s-3.763 34.188 26.923 62.88c23.903 22.357 53.862 27.537 66.01 28.784 2.832 22.321 6.913 45.424 12.558 69.066-8.328-11.904-21.22-26.084-39.685-35.511-37.263-19.06-67.706-3.558-67.706-3.558s4.845 33.535 42.145 52.595c28.468 14.495 58.558 11.869 71.282 9.781 7.266 26.252 16.433 53.007 27.984 80.208l11.476-5.738c-5.327-12.539-10.022-24.929-14.383-37.226 11.888-3.856 38.921-14.755 59.211-39.853 26.865-33.107 20.756-64.557 20.756-64.557s-31.489-.222-58.244 32.888zm1593.749 71.524c-4.397 12.297-9.056 24.687-14.42 37.226l11.514 5.738c11.531-27.201 20.681-53.956 27.945-80.208 12.726 2.088 42.853 4.714 71.284-9.781 37.317-19.06 42.18-52.595 42.18-52.595s-30.443-15.502-67.742 3.558c-18.445 9.427-31.336 23.606-39.664 35.511 5.624-23.643 9.705-46.745 12.537-69.066 12.147-1.247 42.18-6.427 66.047-28.784 30.668-28.692 26.886-62.88 26.886-62.88s-32.847-7.08-63.476 21.574c-12.838 12.018-21.035 26.309-26.214 38.848 1.788-23.104 2.31-45.182 1.825-66.18 11.494-4.844 37.765-18.501 54.142-46.596 21.37-36.779 8.627-69.158 8.627-69.158s-32.847 2.421-54.235 39.18c-5.404 9.316-8.98 18.948-11.291 28.133-1.155-12.259-2.609-23.959-4.229-35.045 4.378-13.916 10.228-40.709 2.738-70.313-10.936-43.243-41.547-58.371-41.547-58.371s-20.29 25.804-9.353 69.028c7.49 29.567 25.449 51.236 36.125 62.041 3.745 25.58 6.354 54.684 6.782 86.393-3.56-11.363-9.072-23.978-17.849-35.902-25.135-34.411-56.656-35.865-56.656-35.865s-7.732 30.984 17.438 65.341c18.63 25.487 44.416 37.877 56.488 42.534-1.023 23.531-3.334 48.199-7.452 73.816-3.297-14.531-10.19-34.373-24.63-52.241-26.828-33.033-58.26-32.847-58.26-32.847s-6.093 31.487 20.68 64.521c20.104 24.778 46.822 35.808 58.913 39.759-4.974 25.896-11.757 52.652-20.792 79.983-2.627-14.681-9.261-38.157-26.028-58.874-26.792-33.109-58.276-32.885-58.276-32.885s-6.095 31.449 20.717 64.557c20.306 25.095 47.358 35.994 59.246 39.85zm-1481.143-726.951c6.856-10.825 13.938-21.11 21.128-31.021 9.298 7.117 32.157 22.207 62.452 24.499 39.908 3.019 60.961-18.5 60.961-18.5s-16.656-24.407-56.489-27.444c-25.041-1.899-46.729 5.496-59.509 11.291 16.358-21.576 33.35-41.102 50.752-58.781 9.521 7.21 32.287 21.984 62.229 24.295 39.815 3.037 60.923-18.482 60.923-18.482s-16.655-24.443-56.526-27.48c-21.501-1.641-40.541 3.651-53.563 8.85 17.605-16.861 35.417-31.859 53.117-45.219 10.06 6.856 33.387 20.197 63.048 20.961 40.019 1.099 59.861-21.444 59.861-21.444s-17.979-23.587-58.036-24.668c-13.881-.411-26.568 2.087-37.262 5.403 24.76-16.638 48.626-30.127 70.425-40.951 14.029 2.479 40.448 4.807 67.276-5.217 39.22-14.645 48.33-44.119 48.33-44.119s-28.003-15.594-67.259-.969c-26.921 10.061-44.527 28.878-52.931 39.759-9.428 4.657-19.265 9.781-29.362 15.482 5.851-6.763 11.384-14.681 15.688-23.811 17.047-36.2 1.304-62.843 1.304-62.843s-31.822 7.415-48.851 43.615c-13.006 27.649-9.483 55.261-7.117 66.756-16.433 10.881-33.294 23.047-50.155 36.797 6.913-10.75 13.581-24.724 16.022-41.045 5.795-38.995-17.233-60.645-17.233-60.645s-28.487 15.371-34.264 54.459c-4.508 30.369 7.51 56.396 13.005 66.457-15.724 14.104-31.375 29.586-46.651 46.578 4.75-12.799 8.793-30.35 6.24-49.615-5.234-39.051-33.461-54.328-33.461-54.328s-23.344 21.688-18.128 60.72c4.024 29.753 22.096 51.646 30.536 60.364-16.396 19.656-32.213 41.045-47.007 64.502zm-363.214 500.657c0 571.566 464.94 1036.639 1036.619 1036.639 571.567 0 1036.641-465.072 1036.641-1036.639v-.057h127.063c-.111-46.857-2.721-93.77-8.402-140.254l-126.265 15.09c-5.065-41.808-12.595-82.891-22.523-123.041l123.692-30.404c-11.217-45.554-25.189-90.418-41.828-134.164l-119.146 45.199c-14.905-39.182-32.12-77.188-51.458-113.93l112.924-59.358c-21.855-41.622-46.225-81.772-72.831-120.208l-105.006 72.605c-23.81-34.412-49.632-67.26-77.28-98.503l95.522-84.772c-31.097-35.082-64.335-68.283-99.361-99.323l-84.81 95.485c-31.15-27.668-64.016-53.471-98.446-77.264l72.644-105.117c-38.623-26.549-78.793-50.938-120.19-72.811l-59.396 113.036c-36.777-19.358-74.823-36.593-114.022-51.497l45.199-119.258c-43.839-16.545-88.759-30.557-134.182-41.771l-30.369 123.729c-40.169-9.91-81.194-17.457-123.078-22.523l15.148-126.283c-46.542-5.682-93.399-8.514-140.238-8.514v127.231c-42.349 0-84.063 2.627-125.051 7.565l-15.316-126.283c-46.447 5.422-92.708 13.898-138.206 25.078l30.369 123.729c-40.821 10.062-80.673 22.563-119.389 37.338l-45.161-119.295c-43.821 16.617-86.766 35.957-128.184 57.719l59.359 113.036c-37.021 19.487-72.735 41.192-106.98 64.892l-72.57-105.117c-38.585 26.68-75.492 55.782-110.595 86.896l84.697 95.485c-31.245 27.723-60.829 57.311-88.555 88.61l-95.576-84.772c-31.022 35.102-60.143 72.064-86.747 110.67l104.968 72.623c-23.663 34.226-45.349 69.942-64.855 106.943l-112.96-59.358c-21.799 41.509-41.139 84.269-57.758 128.089l119.24 45.236c-14.72 38.717-27.202 78.586-37.263 119.371l-123.749-30.443c-11.141 45.59-19.58 91.795-25.076 138.355l126.282 15.09c-4.956 41.045-7.545 82.834-7.545 125.22zm1036.619-976.478c538.367 0 976.461 438 976.461 976.479 0 538.365-438.094 976.46-976.461 976.46-538.478 0-976.46-438.095-976.46-976.46 0-538.479 437.983-976.479 976.46-976.479zm-197.956 1568.502c35.456 0 70.911-3.875 105.416-11.514-7.694 53.621-32.661 107.781-54.814 155.757l-10.302 22.469.148 1.938c6.484 79.145 77.097 121.959 140.517 121.959 46.187 0 87.585-20.271 116.371-57.029l1.489-3.54c9.503-64.222 2.236-149.739-4.21-225.196l-1.453-17.848c38.325 8.198 76.238 12.297 112.867 12.297h.037c250.124 0 396.062-189.964 442.827-302.18 78.772-188.957 71.246-415.848-20.066-607.021-99.881-209.416-242.54-312.968-594.279-499.67-14.68-7.807-24.406-12.576-35.287-12.576-10.508 0-20.922 4.49-35.288 12.109-11.531 6.074-24.033 12.576-37.448 19.562-82.312 42.908-195.105 101.559-267.432 163.658-8.72 7.452-12.93 18.332-10.639 27.796 1.956 8.423 8.552 14.478 18.073 16.917 119.184 29.232 173.009 93.995 164.681 198.125-8.646 107.744-102.715 164.363-182.754 159.893-90.343-5.105-152.068-58.818-161.066-140.312-3.186-28.413-12.521-42.722-27.76-42.722-14.049 0-30.556 13.229-51.758 41.771-184.244 247.385-129.635 645.832 40.243 823.591 62.527 65.378 192.163 141.766 351.887 141.766zm1.808-57.086c-53.174 0-231.586-11.699-339.46-159.779h3.466c99.508 0 353.861 54.961 491.117 123.803-35.958 22.747-92.69 35.976-155.123 35.976zm391.646 0c-62.341 0-119.108-13.229-155.104-35.977 138.876-69.662 398.277-124.736 494.509-123.803-107.763 148.081-286.213 159.78-339.405 159.78zm-175.263-1296.674c123.264 62.843 226.331 122.779 314.438 182.902-131.591 31.021-274.827 94.182-314.438 112.346zm0 343.317c110.445-52.801 266.24-108.248 358.873-127.792 60.924 41.996 151.062 154.341 187.263 222.588-177.536 18.5-389.225 73.928-546.136 143.086zm0 285.802c100.348-48.292 327.76-131.573 568.885-148.957 17.326 39.312 62.525 156.932 59.693 304.956-244.889 2.776-488.846 73.444-628.578 144.652zm0 347.975c184.226-94.068 406.998-146.906 628.578-149.143 1.082 92.84-46.764 221.189-81.082 265.551-168.277 2.031-400.068 55.744-547.496 126.486zm-22.023 308.588c4.696.932 23.587 15.185 33.854 34.654 2.142 14.887 23.829 164.998 14.625 242.131-10.583 12.073-35.81 23.867-65.656 23.867-19.079 0-64.744-5.738-83.207-58.315 48.963-80.45 70.146-200.155 73.052-217.482 14.272-17.925 24.351-24.351 27.332-24.855zm-257.669-1151.817c89.243-55.334 176.735-102.285 238.627-133.865v295.248c-18.35-8.477-59.06-26.529-109.959-46.484-25.712-54.123-70.986-94.405-128.668-114.899zm144.318 168.053c34.431 13.975 66.084 27.816 94.31 41.324v237.957c-48.477-21.351-102.061-41.453-159.648-59.898 74.764-79.146 72.901-171.649 65.338-219.383zm-441.671 135.822c30.219 90.175 109.961 147.596 207.066 147.596 42.741 0 86.803-11.495 127.513-33.127 75.251 23.291 146.459 50.416 201.401 76.91v300.651c-139.807-71.208-383.764-141.876-628.541-144.652-2.273-126.134 37.337-273.376 92.561-347.378zm-92.561 390.211c221.525 2.236 444.316 55.074 628.541 149.143v242.895c-147.465-70.742-379.329-124.455-547.494-126.486-34.412-44.455-82.202-172.732-81.047-265.552zm482.082-244.515c-22.432 0-52.931 11.83-52.931 138.969 0 127.029 33.201 129.674 52.931 129.674 19.935 0 43.764-14.513 43.764-129.674 0-106.048-13.265-138.969-43.764-138.969zm-2.627 105.918c-17.103 0-19.805-19.618-19.805-43.689 0-24.127 5.272-43.69 19.805-43.69s19.898 19.563 19.898 43.69c.001 24.07-2.663 43.689-19.898 43.689zm730.641 682.199c14.961-5.459 42.013-18.239 62.693-44.379 30.127-38.156 22.843-74.674 22.843-74.674s-35.791-.41-65.918 37.746c-20.624 26.104-27.442 56.062-29.679 72.458-19.674 20.251-43.038 41.825-70.24 63.289 7.491-10.657 14.719-23.792 19.228-39.293 13.043-44.584-6.633-72.849-6.633-72.849s-31.933 13.881-44.938 58.502c-9.669 33.109-3.278 63.57.709 77.134-21.016 14.755-43.933 29.139-68.806 42.608 10.416-12.537 22.991-31.709 28.823-56.041 10.807-45.162-10.248-72.195-10.248-72.195s-31.3 15.612-42.144 60.736c-8.049 33.871.149 64.277 4.771 77.339-25.712 12.948-53.323 24.815-82.984 35.156 10.938-11.979 26.829-33.35 33.611-61.632 10.807-45.162-10.211-72.195-10.211-72.195s-31.337 15.575-42.125 60.756c-8.197 34.264.316 64.875 4.9 77.691-13.563 4.417-27.425 8.607-41.809 12.297l2.684 13.77c31.207-8.086 60.438-17.961 87.976-29.047 6.634 12.334 24.371 40.15 55.819 55.148 41.287 19.639 73.5 1.566 73.5 1.566s-6.837-36.611-48.069-56.268c-20.401-9.688-41.229-11.457-57.065-10.75 24.183-10.807 46.875-22.637 68.059-34.989 9.148 9.651 33.592 32.157 68.806 37.97 45.18 7.49 72.27-18.481 72.27-18.481s-15.705-33.126-60.904-40.579c-18.875-3.129-36.666-.708-50.995 3.131 21.186-13.807 40.654-28.059 58.447-42.404 11.886 6.706 41.175 20.363 76.312 15.854 46.057-5.925 65.546-38.399 65.546-38.399s-23.887-26.904-69.887-20.96c-11.644 1.509-22.376 4.845-31.878 8.942 9.874-9.202 19.021-18.2 27.536-26.958zm-820.237 92.467c-10.75-45.181-42.052-60.756-42.052-60.756s-21.09 27.033-10.284 72.195c6.801 28.282 22.694 49.652 33.648 61.632-29.642-10.341-57.272-22.208-83.021-35.156 4.62-13.062 12.818-43.468 4.77-77.339-10.806-45.124-42.106-60.736-42.106-60.736s-21.054 27.033-10.248 72.195c5.833 24.332 18.428 43.504 28.805 56.041-24.892-13.47-47.771-27.854-68.806-42.608 3.969-13.563 10.416-44.024.728-77.134-13.005-44.621-44.976-58.502-44.976-58.502s-19.639 28.265-6.596 72.849c4.509 15.501 11.737 28.636 19.228 39.293-27.183-21.464-50.565-43.038-70.221-63.289-2.292-16.396-9.112-46.354-29.68-72.458-30.164-38.156-65.955-37.746-65.955-37.746s-7.266 36.518 22.861 74.674c20.681 26.14 47.752 38.92 62.694 44.379 8.495 8.758 17.662 17.756 27.537 26.959-9.54-4.098-20.234-7.434-31.897-8.942-45.981-5.944-69.868 20.96-69.868 20.96s19.488 32.475 65.546 38.399c35.156 4.509 64.39-9.148 76.276-15.854 17.83 14.346 37.261 28.598 58.483 42.404-14.329-3.839-32.102-6.26-50.994-3.131-45.198 7.453-60.887 40.579-60.887 40.579s27.053 25.972 72.251 18.481c35.215-5.812 59.62-28.318 68.787-37.97 21.165 12.353 43.876 24.183 68.097 34.989-15.855-.707-36.685 1.062-57.067 10.75-41.249 19.656-48.105 56.268-48.105 56.268s32.232 18.072 73.5-1.566c31.469-14.998 49.204-42.814 55.818-55.148 27.52 11.086 56.771 20.961 87.995 29.047l2.647-13.77c-14.384-3.689-28.209-7.88-41.772-12.297 4.603-12.817 13.08-43.429 4.864-77.692z" fill="#00acd0"/></svg>