<svg enable-background="new 0 0 2704.017 2704.018" height="2704.018" viewBox="0 0 2704.017 2704.018" width="2704.017" xmlns="http://www.w3.org/2000/svg"><path d="m1351.99 0c-745.554 0-1351.99 606.445-1351.99 1352.027 0 745.451 606.436 1351.99 1351.99 1351.99 745.49 0 1352.027-606.539 1352.027-1351.99 0-745.582-606.537-1352.027-1352.027-1352.027zm0 2643.317c-712.046 0-1291.233-579.318-1291.233-1291.29v-.037h127.437c.028-46.867 2.767-93.808 8.497-140.256l-126.526-15.314c6.307-52.149 15.724-103.356 28.058-153.429l123.534 30.406c11.226-45.57 25.189-90.426 41.78-134.199l-118.829-45.098c18.594-48.879 40.066-96.313 64.212-142.146l112.365 59.154c21.845-41.593 46.121-81.725 72.829-120.199l-104.316-72.242c29.605-42.805 61.763-83.7 96.212-122.547l94.86 84.138c31.114-35.064 64.362-68.236 99.416-99.323l-84.139-94.953c38.837-34.439 79.742-66.597 122.537-96.221l72.197 104.278c38.529-26.541 78.735-50.9 120.199-72.754l-59.22-112.347c45.87-24.173 93.333-45.665 142.24-64.268l45.162 118.867c43.709-16.535 88.638-30.564 134.182-41.743l-30.406-123.608c50.024-12.353 101.205-21.761 153.325-28.059l15.278 126.524c46.513-5.646 93.491-8.458 140.368-8.458v-127.473c52.614 0 104.502 3.25 155.514 9.399l-15.25 126.533c46.551 5.45 92.7 13.964 138.271 25.143l30.369-123.637c50.9 12.558 100.609 28.116 148.957 46.495l-45.135 118.885c43.82 16.619 86.635 35.949 128.221 57.748l59.061-112.393c46.111 24.296 90.574 51.311 133.213 80.821l-72.104 104.326c38.502 26.698 75.41 55.783 110.623 86.896l84.119-94.925c38.828 34.448 75.605 71.217 110.073 110.081l-94.813 84.167c31.039 35.083 60.039 72.083 86.746 110.651l104.316-72.261c29.531 42.656 56.564 87.147 80.879 133.297l-112.384 59.163c21.724 41.52 41.081 84.269 57.683 128.09l118.922-45.126c18.408 48.312 33.946 98.028 46.504 148.919l-123.581 30.406c11.104 45.563 19.618 91.76 25.097 138.337l126.543-15.314c6.148 51.021 9.39 102.938 9.39 155.607 0 711.971-579.272 1291.289-1291.253 1291.289zm-1036.592-1291.29c0 571.548 464.969 1036.62 1036.592 1036.62 571.577 0 1036.621-465.072 1036.621-1036.62v-.037h127.12c-.112-46.867-2.72-93.808-8.421-140.256l-126.264 15.055c-5.068-41.809-12.642-82.863-22.544-122.993l123.711-30.398c-11.216-45.57-25.208-90.426-41.845-134.199l-119.129 45.198c-14.924-39.144-32.129-77.179-51.469-113.893l112.915-59.396c-21.854-41.593-46.187-81.725-72.812-120.199l-105.023 72.569c-23.783-34.394-49.615-67.259-77.281-98.466l95.559-84.754c-31.133-35.064-64.324-68.236-99.379-99.323l-84.771 95.485c-31.207-27.648-64.082-53.453-98.457-77.255l72.605-105.126c-38.604-26.541-78.8-50.9-120.17-72.754l-59.406 112.999c-36.77-19.377-74.822-36.601-114.023-51.516l45.209-119.23c-43.839-16.535-88.758-30.564-134.191-41.743l-30.369 123.721c-40.168-9.921-81.213-17.476-123.058-22.526l15.155-126.337c-46.549-5.646-93.435-8.458-140.264-8.458v127.222h-.02c-42.32 0-84.036 2.609-125.062 7.546l-15.287-126.311c-46.457 5.45-92.681 13.964-138.197 25.143l30.35 123.721c-40.784 10.052-80.626 22.535-119.379 37.263l-45.153-119.24c-43.839 16.619-86.737 35.949-128.182 57.748l59.387 112.98c-37.057 19.516-72.782 41.203-107.018 64.901l-72.566-105.128c-38.567 26.698-75.475 55.783-110.595 86.896l84.725 95.504c-31.254 27.714-60.849 57.291-88.544 88.544l-95.597-84.726c-31.021 35.083-60.113 72.083-86.756 110.651l104.986 72.615c-23.68 34.216-45.367 69.942-64.864 106.991l-112.951-59.407c-21.836 41.52-41.129 84.269-57.748 128.09l119.24 45.246c-14.746 38.742-27.229 78.595-37.271 119.369l-123.749-30.416c-11.16 45.563-19.609 91.76-25.067 138.337l126.282 15.055c-4.967 41.071-7.575 82.854-7.575 125.238zm1036.592-976.451c538.414 0 976.471 437.973 976.471 976.451 0 538.366-438.057 976.442-976.471 976.442-538.45 0-976.432-438.076-976.432-976.442 0-538.478 437.982-976.451 976.432-976.451zm-1005.106 1329.96-63.886-46.299 31.16-72.513-26.195-95.019-184.756 25.338 26.176 95.019 83.794-11.458-25.264 84.81 65.145 59.937-77.841 33.033 26.186 95.074 171.659-72.903zm417.051 539.931-62.405-41.957-20.569-13.806-61.781-41.585-107.735 148.9 82.35 55.391 79.015-109.179 44.919 30.182c15.054 10.154 11.328 40.151-11.701 43.076-23.019 2.943-48.562-9.781-48.562-9.781l18.65 101.074 92.606 62.284-15.52-84.139s56.993 5.701 78.558-24.034c31.208-43.169-26.67-88.721-67.825-116.426zm129.095 267.898 85.219 30.089 57.151-157.843-85.2-30.09zm372.717-96.323c-81.493-6.372-151.705 30.983-156.754 83.394-5.058 52.427 56.956 99.993 138.43 106.383 81.511 6.335 151.704-30.927 156.752-83.393 5.06-52.429-56.917-100.031-138.428-106.384zm-11.878 122.798c-23.959-1.825-42.2-15.892-40.691-31.319 1.491-15.408 22.125-26.363 46.075-24.48 23.988 1.844 42.171 15.836 40.7 31.281-1.49 15.369-22.096 26.419-46.084 24.518zm-753.622-536.486-14.653-19.32-43.941-57.775-186.853 57.496 58.613 77.114 149.45-46.056-90.855 123.152 58.577 77.113 113.585-153.93zm1345.787 314.942-107.362 34.282-54.842 104.577-28.58-77.879-95.41 30.462 61.269 166.897 95.374-30.461-28.562-77.896 112.029 51.197 107.335-34.28-120.06-54.87zm170.688-121.978-19.701 14.588-58.932 43.765 65.424 177.275 78.651-58.315-52.362-141.858 131.07 83.449 78.651-58.353-163.861-104.279zm363.188-355.613c-45.488-29.399-91.34 28.096-119.128 68.897l-42.032 61.856-13.88 20.438-41.595 61.166 156.969 101.52 55.492-81.604-115.141-74.469 30.276-44.491c10.153-14.942 41.36-12.054 44.947 10.341 3.614 22.376-8.989 47.602-8.989 47.602l104.391-20.661 62.434-91.759-86.953 17.14c0 .001 4.584-55.706-26.791-75.976zm97.59-372.809-46.95-10.583-21.407 93.212-21.37 93.155-21.389 93.156 46.95 10.657 21.389-93.193 129.17 29.195 21.408-93.23-129.171-29.159zm-1090.493 670.684-34.98-71.078-35.026 71.078-78.251 11.309 56.546 55.242-13.275 78.008 70.006-36.758 70.054 36.758-13.386-78.008 56.592-55.242zm353.368-63.868-60.225 15.055-46.56-41.045-4.276 61.948-53.452 31.581 57.588 23.232 13.537 60.607 39.869-47.64 61.828 5.868-32.958-52.651zm-669.93-25.99-46.578 41.045-60.244-15.055 24.677 56.956-32.949 52.651 61.809-5.868 39.853 47.64 13.544-60.607 57.599-23.232-53.444-31.581zm637.839-777.497c77.412-57.758 161.021-150.149 150.81-289.184-9.492-129.105-88.115-215.098-172.078-270.479-86.336-57.095-209.06-99.062-351.495-92.29-74.571 3.586-133.418 14.048-189.498 33.705-55.856 19.6-102.145 43.215-145.817 76.052-77.338 58.018-160.34 151.238-149.562 290.488 5.104 66.719 28.347 115.97 59.806 160.74 86.868 123.852 259.951 207.767 464.941 200.687 139.734-4.864 247.097-45.675 332.893-109.719zm-766.673-99.678c-29.698-38.622-55.94-86.551-61.046-144.634-11.43-128.993 64.138-221.021 135.822-274.223 75.838-56.303 182.502-99.863 311.569-103.497 143.228-4.024 246.184 28.628 332.958 82.286 78.13 48.394 158.244 127.483 168.277 244.292 10.992 129.124-63.924 216.867-138.355 271.811-80.925 59.602-179.53 96.435-310.441 102.191-191.763 8.478-351.963-65.237-438.784-178.226zm-148.323 765.388c110.688 58.912 286.268 78.195 449.99 52.354 2.049 51.925 53.35 54.683 100.953 61.074h21.258c48.749-5.609 98.046-10.732 102.08-61.074 163.489 25.488 339.228 6.707 450.129-52.354 114.2-60.924 192.479-161.588 208.157-316.6v-9.968c-6.735-23.419-47.817-42.833-72.242-56.247-78.652-42.666-188.79-78.493-305.486-62.191-145.9 20.308-237.025 106.887-280.558 221.861-2.842-54.497-.326-114.229-1.099-170.756 175.207-22.189 308.792-84.791 416.285-178.264 51.496-44.668 97.395-97.934 130.912-165.816 32.586-65.983 56.619-150.652 46.14-245.56-18.351-166.069-121.271-285.122-230.616-362.702-117.787-83.626-262.551-133.297-452.542-140.944-1.416.167-2.171-.271-2.516-1.231h-38.613c-190.857 8.823-335.203 58.381-454.955 142.175-109.402 76.201-212.525 196.977-230.718 363.96-20.495 188.39 80.766 327.694 178.318 411.357 107.875 92.569 240.259 154.015 415.112 178.31v169.471c-44.296-111.285-133.12-200.752-280.493-221.861-116.38-16.768-226.909 17.551-306.65 61.111-22.767 12.39-65.535 34.689-72.326 57.327v11.104c15.79 155.552 94.647 254.353 209.48 315.464zm776.52-280.456c51.254-62.917 116.816-108.154 216.996-113.445 117.525-6.334 206.573 37.393 280.446 82.238-40.849 255.434-278.275 332.753-580.957 314.141-2.609-4.658 4.257-9.093 6.325-11.234 105.117-107.41 231.688-186.406 388.935-244.349 9.353-3.41 22.776-4.508 28.665-14.867-7.994-10.9-23.215-6.987-33.742-6.241-84.314 6.334-159.324 40.802-219.382 73.5-72.755 39.795-134.656 94.235-186.917 145.844 14.738-85.089 50.201-164.7 99.631-225.587zm-164.496 325.356c-28.57 9.261-72.466 9.354-100.887 0v-428.795c-.223-1.827-.298-3.597 1.146-3.728 32.121 1.808 67.613 1.621 99.742 0v432.523zm-614.586-744.193c-40.29-54.449-73.127-120.265-81.026-201.99-8.608-89.849 17.122-170.773 51.096-230.625 35.651-62.629 81.186-108.574 133.38-149.636 79.127-62.042 177.946-105.91 296.674-129.571 39.89-7.919 81.837-12.745 128.443-14.96 186.982-8.916 340.01 41.081 453.828 114.674 107.306 69.383 211.36 178.497 226.824 340.299 8.553 89.784-17.904 170.597-52.372 229.378-35.8 61.194-81.464 109.877-133.38 149.534-107.334 82.2-246.584 137.591-422.621 144.634-270.478 10.804-484.289-94.667-600.846-251.737zm-139.594 436.221c-3.792-13.75-10.946-38.791-8.767-47.362 2.832-10.525 39.712-25.989 49.913-31.076 88.014-44.305 233.234-77.189 339.068-26.27 114.386 55.093 180.117 175.841 208.176 311.737-5.589 1.825-6.27-4.882-8.729-7.527-48.655-52.372-111.843-98.932-178.31-135.841-52.279-29.193-111.833-56.172-181.999-69.811-21.91-4.378-48.534-11.123-71.031 0 4.406 11.831 19.349 12.764 28.71 16.116 138.97 51.273 255.862 119.575 355.306 211.931 14.598 13.6 30.136 27.07 41.128 43.652-261.489 17.979-480.871-41.604-558.498-224.376-4.766-11.233-10.654-25.188-14.967-41.173zm944.918-512.33c50.117-39.126 101.771-104.95 86.094-195.702-7.053-39.871-25.078-71.852-46.215-97.302-61.762-74.059-168.193-127.222-314.131-117.116-85.788 5.934-158.915 36.424-210.672 78.512-46.625 38.044-100.422 108.519-83.515 198.198 14.393 76.574 65.517 126.487 125.882 160.862 62.256 35.418 146.255 56.854 234.361 49.857 87.978-7.023 152.776-33.973 208.196-77.309zm-249.351 48.646c-112.458-3.54-213.672-46.792-264.237-124.689-21.398-32.901-32.809-80.141-23.736-123.311 8.626-41.053 36.247-76.602 57.318-96.071 50.631-46.735 126.506-82.387 225.736-84.744 72.717-1.742 132.281 11.767 180.722 36.145 49.168 24.668 86.001 50.462 113.427 102.192 30.732 57.961 17.803 131.163-14.942 175.805-53.956 73.265-162.762 118.1-274.288 114.673zm-139.575-359.013c-46.057-.839-46.01 69.513-47.342 112.226-1.444 44.062-.541 117.459 36.07 124.585 42.432 8.319 47.053-52.14 48.729-92.148 1.667-43.71 1.723-95.29-8.785-121.01-4.051-9.802-9.659-23.244-28.672-23.653zm-1.23 93.5c-27.463 1.77-26.317-66.989-6.26-73.527 30.527-10.108 32.111 71.776 6.26 73.527zm285.448-91.022c-30.462 11.812-26.242 76.975-26.242 120.879 0 49.829 1.976 106.235 35.008 113.454 42.665 9.419 47.175-49.828 48.571-90.956 1.519-46.16.168-90.344-10.014-115.952-6.548-16.564-21.509-37.43-47.323-27.425zm13.703 91.022c-25.04 0-25.273-66.42-6.186-73.527 30.37-11.505 35.865 73.527 6.186 73.527zm639.71 333.703c-5.561 25.292-12.78 51.562-22.067 78.511-.839-16.395-4.528-39.199-16.777-61.23-22.722-40.923-56.815-46.652-56.815-46.652s-12.586 32.912 10.125 73.808c17.076 30.647 43.877 47.63 56.22 54.226-10.294 27.09-22.729 54.775-37.7 82.629-.056-16.32-2.795-43.057-17.01-68.674-22.73-40.914-56.844-46.662-56.844-46.662s-12.576 32.912 10.172 73.827c17.234 31.02 44.417 47.975 56.556 54.365-7.062 12.519-14.495 25.04-22.638 37.579l11.318 8.439c17.691-27.295 32.671-54.553 45.554-81.53 13.358 4.659 45.45 13.228 79.043 2.906 44.034-13.526 55.661-48.869 55.661-48.869s-30.006-22.59-74.041-9.035c-21.771 6.669-38.408 19.562-49.717 30.89 10.592-24.556 19.441-48.758 26.727-72.41 13.395.978 46.856 1.025 76.992-18.632 38.66-25.227 41.035-62.973 41.035-62.973s-34.206-13.908-72.838 11.355c-16.172 10.555-27.723 24.454-35.753 37.058 6.335-24.668 11.058-48.516 14.532-71.311 13.414-3.092 44.436-12.902 67.473-40.217 30.127-35.733 22.497-73.219 22.497-73.219s-36.032-3.662-66.141 32.092c-7.62 9.074-13.331 18.837-17.616 28.357 1.072-13.527 1.752-26.457 2.097-38.792 7.405-14.215 18.799-42.134 16.312-75.642-3.643-48.869-33.891-71.05-33.891-71.05s-26.856 24.09-23.242 72.978c2.487 33.396 17.84 60.301 27.313 73.994-.829 28.459-3.466 60.411-9.073 94.898-1.677-13.023-5.264-27.695-12.445-42.293-20.729-41.995-54.562-49.587-54.562-49.587s-14.271 32.092 6.456 74.068c15.37 31.153 40.914 49.42 53.087 56.798zm-1500.023 240.165 11.31-8.439c-8.142-12.539-15.576-25.061-22.628-37.579 12.129-6.391 39.321-23.346 56.555-54.365 22.758-40.915 10.154-73.827 10.154-73.827s-34.095 5.748-56.816 46.662c-14.234 25.617-16.973 52.354-17.029 68.674-14.952-27.854-27.407-55.539-37.682-82.629 12.343-6.596 39.135-23.578 56.201-54.226 22.721-40.896 10.126-73.808 10.126-73.808s-34.114 5.729-56.816 46.652c-12.25 22.031-15.939 44.836-16.777 61.23-9.288-26.949-16.507-53.219-22.05-78.511 12.176-7.378 37.71-25.646 53.053-56.797 20.746-41.977 6.456-74.068 6.456-74.068s-33.816 7.592-54.543 49.587c-7.201 14.598-10.769 29.27-12.464 42.293-5.571-34.487-8.226-66.439-9.055-94.898 9.474-13.693 24.826-40.598 27.313-73.994 3.605-48.888-23.224-72.978-23.224-72.978s-30.275 22.181-33.909 71.05c-2.487 33.508 8.896 61.427 16.331 75.642.344 12.335 1.006 25.265 2.096 38.792-4.285-9.521-10.015-19.283-17.635-28.357-30.108-35.754-66.159-32.092-66.159-32.092s-7.62 37.485 22.516 73.219c23.019 27.314 54.077 37.125 67.454 40.217 3.493 22.795 8.216 46.643 14.569 71.311-8.03-12.604-19.581-26.503-35.763-37.058-38.641-25.264-72.848-11.355-72.848-11.355s2.376 37.746 41.035 62.973c30.127 19.657 63.598 19.609 76.984 18.632 7.294 23.652 16.144 47.854 26.745 72.41-11.3-11.327-27.956-24.221-49.727-30.89-44.035-13.555-74.031 9.035-74.031 9.035s11.617 35.343 55.651 48.869c33.583 10.321 65.674 1.753 79.051-2.906 12.895 26.976 27.847 54.234 45.556 81.529z" fill="#00acd0"/></svg>