<svg enable-background="new 0 0 2704.036 2704.018" height="2704.018" viewBox="0 0 2704.036 2704.018" width="2704.036" xmlns="http://www.w3.org/2000/svg"><path d="m1352.009 0c-745.583 0-1352.009 606.407-1352.009 1352.028 0 745.451 606.426 1351.989 1352.009 1351.989 745.461 0 1352.027-606.538 1352.027-1351.989 0-745.621-606.566-1352.028-1352.027-1352.028zm0 2643.317c-712.074 0-1291.253-579.318-1291.253-1291.289v-.057h127.438c.028-46.857 2.729-93.77 8.468-140.254l-126.496-15.316c6.269-52.147 15.678-103.347 28.021-153.408l123.562 30.369c11.207-45.554 25.171-90.418 41.762-134.164l-118.84-45.088c18.622-48.887 40.075-96.36 64.24-142.154l112.347 59.153c21.826-41.622 46.158-81.772 72.829-120.208l-104.308-72.289c29.624-42.76 61.763-83.674 96.222-122.501l94.852 84.12c31.123-35.082 64.352-68.283 99.443-99.323l-84.167-94.963c38.828-34.449 79.742-66.606 122.547-96.229l72.178 104.297c38.566-26.549 78.735-50.938 120.227-72.811l-59.237-112.309c45.879-24.184 93.342-45.684 142.249-64.278l45.171 118.868c43.718-16.545 88.647-30.557 134.191-41.771l-30.435-123.581c50.062-12.334 101.205-21.742 153.335-28.058l15.296 126.561c46.522-5.682 93.473-8.514 140.358-8.514v-127.419c52.613 0 104.492 3.223 155.494 9.372l-15.248 126.561c46.549 5.422 92.736 13.898 138.309 25.078l30.322-123.581c50.9 12.538 100.627 28.096 148.993 46.484l-45.171 118.868c43.848 16.617 86.653 35.957 128.247 57.719l59.062-112.365c46.111 24.277 90.584 51.33 133.221 80.822l-72.092 104.354c38.492 26.68 75.4 55.782 110.613 86.896l84.082-94.926c38.865 34.431 75.633 71.189 110.101 110.073l-94.823 84.176c31.04 35.102 60.049 72.064 86.766 110.67l104.334-72.289c29.512 42.665 56.527 87.193 80.852 133.344l-112.355 59.153c21.723 41.509 41.053 84.269 57.682 128.089l118.904-45.125c18.379 48.311 33.965 98 46.512 148.92l-123.59 30.369c11.086 45.59 19.601 91.795 25.097 138.355l126.562-15.316c6.139 51.05 9.381 102.938 9.381 155.627-.003 711.97-579.285 1291.288-1291.255 1291.288zm-1036.658-1291.289c0 571.566 464.998 1036.639 1036.658 1036.639 571.585 0 1036.61-465.072 1036.61-1036.639v-.057h127.093c-.103-46.857-2.73-93.77-8.394-140.254l-126.264 15.09c-5.058-41.808-12.65-82.891-22.524-123.041l123.691-30.404c-11.234-45.554-25.197-90.418-41.826-134.164l-119.174 45.199c-14.879-39.182-32.111-77.188-51.441-113.93l112.934-59.358c-21.855-41.622-46.215-81.772-72.83-120.208l-105.005 72.605c-23.821-34.412-49.652-67.26-77.32-98.503l95.56-84.772c-31.123-35.082-64.323-68.283-99.359-99.323l-84.81 95.485c-31.179-27.668-64.063-53.471-98.438-77.264l72.635-105.117c-38.633-26.549-78.792-50.938-120.19-72.811l-59.405 113.036c-36.76-19.358-74.814-36.593-114.004-51.497l45.162-119.258c-43.812-16.545-88.74-30.557-134.145-41.771l-30.369 123.729c-40.17-9.91-81.213-17.457-123.078-22.523l15.139-126.283c-46.541-5.682-93.436-8.514-140.246-8.514v127.231c-42.339 0-84.055 2.627-125.081 7.565l-15.277-126.283c-46.456 5.422-92.709 13.898-138.196 25.078l30.35 123.729c-40.812 10.062-80.654 22.563-119.407 37.338l-45.134-119.295c-43.849 16.617-86.766 35.957-128.183 57.719l59.368 113.036c-37.029 19.487-72.754 41.192-106.989 64.892l-72.605-105.117c-38.548 26.68-75.484 55.782-110.558 86.896l84.697 95.485c-31.272 27.723-60.821 57.311-88.554 88.61l-95.587-84.772c-31.012 35.102-60.123 72.064-86.766 110.67l105.005 72.623c-23.708 34.226-45.367 69.942-64.901 106.943l-112.933-59.358c-21.817 41.509-41.119 84.269-57.748 128.089l119.239 45.236c-14.728 38.717-27.211 78.586-37.271 119.371l-123.729-30.443c-11.197 45.59-19.628 91.795-25.087 138.355l126.282 15.09c-4.949 41.045-7.595 82.834-7.595 125.22zm1036.658-976.478c538.385 0 976.459 438 976.459 976.479 0 538.365-438.074 976.46-976.459 976.46-538.497 0-976.479-438.095-976.479-976.46 0-538.479 437.982-976.479 976.479-976.479zm-1005.153 1329.986-63.877-46.299 31.16-72.513-26.204-95.019-184.747 25.339 26.178 95.019 83.783-11.458-25.264 84.809 65.181 59.937-77.868 33.033 26.177 95.074 171.658-72.903zm417.032 539.932-62.368-41.938-20.569-13.825-61.762-41.585-107.754 148.9 82.351 55.391 79.033-109.179 44.901 30.184c15.072 10.152 11.327 40.168-11.71 43.074-23.037 2.943-48.553-9.781-48.553-9.781l18.669 101.074 92.597 62.303-15.529-84.156s57.012 5.719 78.567-24.035c31.208-43.169-26.68-88.723-67.873-116.427zm129.133 267.897 85.237 30.089 57.142-157.843-85.209-30.089zm372.697-96.322c-81.474-6.373-151.694 30.964-156.725 83.411-5.096 52.41 56.946 99.976 138.448 106.385 81.492 6.334 151.685-30.929 156.753-83.413 5.039-52.409-56.955-100.011-138.476-106.383zm-11.877 122.815c-23.95-1.844-42.162-15.91-40.681-31.338 1.49-15.406 22.133-26.363 46.084-24.462 23.987 1.825 42.199 15.837 40.709 31.263-1.481 15.371-22.097 26.42-46.112 24.537zm-753.604-536.503-14.672-19.302-43.951-57.795-186.843 57.516 58.623 77.095 149.44-46.056-90.845 123.152 58.604 77.115 113.566-153.932zm1345.805 314.941-107.371 34.283-54.852 104.576-28.57-77.879-95.391 30.463 61.25 166.879 95.363-30.424-28.572-77.916 112.059 51.197 107.334-34.281-120.088-54.867zm170.671-121.979-19.702 14.59-58.922 43.765 65.442 177.274 78.634-58.314-52.363-141.857 131.089 83.449 78.623-58.354-163.824-104.279zm363.196-355.612c-45.507-29.399-91.34 28.096-119.1 68.917l-42.032 61.855-13.898 20.42-41.595 61.184 156.959 101.504 55.482-81.604-115.121-74.47 30.295-44.49c10.116-14.943 41.342-12.055 44.928 10.34 3.605 22.395-8.971 47.603-8.971 47.603l104.391-20.644 62.406-91.759-86.934 17.142c.001-.001 4.593-55.727-26.81-75.998zm97.627-372.809-46.996-10.602-21.381 93.23-21.396 93.156-21.38 93.155 46.95 10.658 21.398-93.193 129.189 29.195 21.379-93.231-129.162-29.158zm-1182.371 481h62.031c233.012-18.574 408.229-98.371 534.726-224.877 8.431-8.478 16.655-20.681 25.198-25.245 8.663-4.64 18.5-6.521 26.409-10.321 53.733-25.544 97.684-69.029 129.692-119.426 35.455-55.652 55.315-139.922 44.724-232.928 61.39-49.895 119.956-102.658 130.855-203.043v-31.096c-15.584-127.455-86.095-200.024-214.537-214.5-65.908-110.391-151.462-203.807-258.331-273.134-106.039-68.954-230.719-127.065-395.838-135.411h-59.666c-223.174 12.669-393.779 101.205-507.262 230.71-114.404 130.698-187.438 308.347-204.133 530.149-86.095 22.545-139.957 77.32-153.818 172.097v26.4c18.072 122.184 114.441 166.246 242.158 178.953 117.378 192.515 303.513 316.172 597.792 331.672zm-530.095-329.398c14.784.763 26.242-1.938 41.287-1.1 17.001 38.474 39.33 71.544 88.405 78.046 34.253 54.086 78.186 98.484 129.645 135.355-107.874-43.913-199.39-120.357-259.337-212.301zm442.966 266.333c-26.726-4.137-55.26-7.154-76.9-14.943-20.718-7.509-42.777-21.929-62.014-34.374-56.731-37.226-107.771-89.28-141.169-146.963 21.37-18.017 39.21-45.814 33.341-87.231 35.381-8.533 74.739-13.135 110.129-21.762h2.264c70.827 159.408 178.943 281.611 387.938 302.906-80.151 16.394-172.897 14.625-253.589 2.367zm532.395-101.019c-42.889 25.673-93.352 49.987-146.916 67.761-19.656 6.483-41.621 14.867-60.785 17.104-55.781 6.744-115.354-8.142-158.365-24.035-130.63-48.348-222.725-149.645-274.24-270.896 41.632-9.967 83.459-19.693 123.897-30.891h2.366c19.47 59.062 92.83 115.439 170.988 83.766 82.535 83.598 184.682 159.371 352.287 150.336 3.371 3.091-5.264 4.525-9.232 6.855zm315.548-270.804c-38.986 82.015-118.635 159.017-240.901 151.416-81.064-5.013-132.58-46.653-181.375-91.759 12.977 42.199 44.93 71.842 78.084 94.088 33.797 22.692 76.061 40.056 127.344 43.559.672 3.205-5.402 7.304-10.293 11.458-10.248 8.888-30.9 28.729-43.588 33.312-15.24 5.479-41.315 4.472-60.926 3.522-57.904-3.057-111.711-21.408-152.561-40.225-61.865-28.413-108.535-67.539-145.789-110.203 34.002-25.209 42.918-97.368 26.494-149.181 79.164-43.989 160.488-85.723 238.684-130.81 18.381 76.221 72.477 154.043 163.955 159.539 68.721 4.191 117.357-36.295 125.127-98.709-9.055 6.298-18.352 22.227-32.13 27.594 10.433-29.307 18.901-80.021 10.358-123.917-1.583-8.048-6.213-18.072-5.729-22.954 1.146-9.408 21.211-25.804 35.558-34.504 13.518-8.067 35.847-19.396 53.938-12.502 15.706 5.832 24.108 44.864 28.739 61.912 7.145 27.201 11.532 50.062 12.575 76.908 2.636 64.354-9.036 112.666-27.564 151.456zm-496.837-944.397c20.791 4.267 43.865 15.464 65.441 25.189 141.914 63.774 263.519 168.892 338.444 293.833-115.644 14.29-201.217 61.799-289.128 107.875-9.986 5.197-31.049 18.352-37.84 18.352-7.127-.15-30.117-16.732-37.914-20.682-39.807-20.141-77.617-37.691-133.074-40.205-26.148-86.355-65.041-159.912-102.211-235.182 51.404-59.639 120.098-110.707 191.668-146.945 1.25-.613 2.051-2.812 4.614-2.235zm-735.579 610.527c18.081-100.535 42.367-194.863 67.705-288.113 53.658-41.361 119.566-74.301 189.33-102.137 70.762-28.282 144.671-54.18 228.326-61.911 2.096-.187 6.846-2.888 12.716-1.248 6.008 1.751 11.104 21.034 14.839 29.884 30.777 71.004 69.121 146.871 103.254 210.067-36.656 56.192-63.645 122.184-85.975 192.739-100.477 52.818-216.493 102.229-345.486 134.274-14.933 3.727-42.805 14.681-54.943 12.576-9.679-1.621-24.397-23.513-32.278-32.083-31.3-34.15-64.557-63.663-97.488-94.048zm74.581 135.354c-52.661 7.731-116.612 9.036-168.771 0 17.886-44.156 44.594-79.462 72.429-113.65 32.288 36.983 66.625 77.88 96.342 113.65zm563.48-336.274c49.094 13.172 88.424 36.238 127.346 59.714-58.66 30.834-117.49 61.482-177.873 90.678 14.644-52.298 32.828-101.076 50.527-150.392zm-543.918-285.709c98.299-80.636 231.502-145.938 396.966-153.801 65.097-3.093 124.39 3.168 180.181 12.67-64.826 35.754-118.391 82.74-162.919 138.857-205.287-2.57-331.924 73.594-447.53 160.602-25.227-15.334-44.51-36.573-55.176-66.514 20.884-35.791 54.71-64.147 88.478-91.814zm-245.53 546.265c0-74.077 16.32-139.603 33.2-197.396 24.249-83.338 55.922-155.197 94.097-216.904 15.455 20.941 34.524 38.139 58.521 50.527-25.431 81.102-49.345 163.619-63.094 257.055-2.003 13.377.288 30.275-3.513 41.305-2.869 8.441-21.631 18.744-30.946 27.481-30.928 28.972-56.992 62.378-74.599 101.073-19.815-12.276-13.666-41.584-13.666-63.141zm-152.748 228.307c-13.75-40.094-4.918-84.939 11.505-115.959 16.573-31.264 37.626-50.883 74.562-66.477 3.866 30.145 29.409 47.845 57.403 57.346 38.222 13.023 86.523 16.471 133.101 17.271 145.733 2.199 270.302-34.877 375.27-73.463 141.876-52.168 278.526-127.791 405.05-192.738 62.881-32.4 126.693-68.582 199.615-99.883 68.991-29.549 146.684-63.625 242.168-52.781 89.803 10.19 151.397 50.061 169.869 129.579 22.293 95.746-25.962 170.923-74.57 219.271-.027 1.117-1.416.895-2.357 1.117-13.777-44.881-18.118-106.197-56.182-128.499-55.895-32.827-134.08-4.899-184.803 18.352-96.78 44.528-182.018 104.298-271.912 152.59-119.818 64.427-259.271 127.12-398.204 168.743-140.722 42.069-321.034 74.617-498.012 66.477-88.35-4.006-159.959-35.774-182.503-100.946zm867.589 635.175-34.98-71.079-35.054 71.079-78.251 11.234 56.573 55.278-13.284 77.973 70.016-36.74 70.025 36.74-13.387-77.973 56.602-55.278zm353.377-63.905-60.252 15.092-46.551-41.082-4.285 61.949-53.426 31.617 57.59 23.195 13.518 60.57 39.879-47.566 61.818 5.832-32.959-52.633zm-669.949-25.991-46.578 41.082-60.244-15.092 24.649 56.975-32.959 52.633 61.847-5.832 39.87 47.566 13.518-60.57 57.607-23.195-53.462-31.617zm-315.733-88.498c16.572 16.916 34.719 33.574 54.515 49.783-14.579-4.658-34.374-8.311-55.801-4.416-43.336 7.881-58.921 40.206-58.921 40.206s25.404 24.91 68.749 17.085c33.052-6 56.564-27.389 65.834-37.225 22.805 17.252 47.537 33.833 74.524 49.204l5.934-12.11c-12.455-7.043-24.258-14.439-35.763-21.984 7.49-10.731 23.103-37.096 24.128-71.004 1.388-44.752-23.811-67.184-23.811-67.184s-26.41 19.879-27.732 64.576c-.839 28.02 8.57 51.906 15.715 65.823-24.956-17.085-47.668-35.083-68.302-53.64 7.546-10.992 22.87-37.188 23.913-70.723 1.285-44.716-23.857-67.11-23.857-67.11s-26.438 19.806-27.76 64.558c-.708 24.09 6.147 45.087 12.659 59.414-19.739-18.818-37.421-37.951-53.229-56.993 7.116-11.644 20.773-38.38 20.094-71.544-.839-44.807-27.044-65.768-27.044-65.768s-25.403 21.295-24.519 66.085c.299 15.575 3.698 29.586 7.983 41.38-19.889-26.828-36.19-52.783-49.372-76.574 2.012-15.837 3.223-45.423-9.354-74.859-18.407-43.096-51.775-51.74-51.775-51.74s-15.995 32.121 2.385 75.178c12.659 29.604 34.616 48.293 47.127 57.086 5.711 10.34 11.952 21.016 18.837 32.046-7.825-6.241-16.974-11.999-27.388-16.377-41.306-17.104-70.305 1.845-70.305 1.845s9.977 35.176 51.263 52.278c31.58 13.079 62.247 7.769 74.991 4.509 12.948 17.83 27.425 35.995 43.681 54.198-12.381-7.247-28.292-13.955-46.644-15.78-43.923-4.473-66.857 22.376-66.857 22.376s18.584 31.003 62.545 35.399c34.199 3.484 62.602-11.234 73.557-17.998zm1327.992-149.216c-10.731 4.471-20.111 10.414-28.197 16.805 7.079-11.327 13.525-22.357 19.395-32.939 12.884-9.073 35.445-28.301 48.44-58.688 18.911-44.324 2.487-77.356 2.487-77.356s-34.328 8.905-53.257 53.248c-12.948 30.256-11.682 60.719-9.613 76.946-13.563 24.481-30.341 51.18-50.771 78.792 4.379-12.111 7.891-26.587 8.198-42.572.913-46.094-25.227-67.986-25.227-67.986s-26.96 21.595-27.845 67.632c-.633 34.132 13.405 61.651 20.718 73.574-16.256 19.562-34.468 39.274-54.747 58.595 6.68-14.662 13.74-36.274 12.995-61.053-1.351-45.982-28.507-66.422-28.507-66.422s-25.868 23.066-24.527 69.029c1.053 34.505 16.797 61.465 24.594 72.754-21.24 19.006-44.595 37.617-70.259 55.188 7.341-14.347 17.029-38.903 16.144-67.725-1.332-46.002-28.533-66.402-28.533-66.402s-25.869 23.047-24.49 69.066c1.062 34.914 17.113 61.985 24.826 73.033-11.795 7.732-23.97 15.353-36.76 22.618l6.102 12.446c27.762-15.78 53.164-32.848 76.602-50.584 9.586 10.061 33.742 32.083 67.744 38.25 44.556 8.049 70.687-17.531 70.687-17.531s-16.005-33.257-60.607-41.381c-22.022-3.968-42.358-.262-57.375 4.509 20.373-16.619 39.022-33.778 56.071-51.104 11.252 6.855 40.476 22.041 75.651 18.5 45.199-4.564 64.333-36.443 64.333-36.443s-23.587-27.648-68.758-23.027c-18.893 1.9-35.27 8.794-47.984 16.191 16.684-18.632 31.589-37.357 44.91-55.689 13.126 3.335 44.678 8.83 77.124-4.62 42.46-17.606 52.726-53.788 52.726-53.788s-29.829-19.474-72.29-1.866z" fill="#00acd0"/></svg>