<svg enable-background="new 0 0 2704.019 2704.018" height="2704.018" viewBox="0 0 2704.019 2704.018" width="2704.019" xmlns="http://www.w3.org/2000/svg"><path d="m1351.992 0c-745.546 0-1351.992 606.445-1351.992 1352.027 0 745.451 606.446 1351.99 1351.992 1351.99 745.468 0 1352.027-606.539 1352.027-1351.99 0-745.582-606.559-1352.027-1352.027-1352.027zm0 2643.317c-712.065 0-1291.236-579.318-1291.236-1291.29v-.037h127.439c.018-46.867 2.756-93.808 8.477-140.256l-126.507-15.314c6.297-52.149 15.726-103.356 28.059-153.429l123.524 30.406c11.236-45.57 25.189-90.426 41.791-134.199l-118.829-45.097c18.612-48.879 40.058-96.313 64.221-142.146l112.364 59.154c21.818-41.593 46.112-81.725 72.83-120.199l-104.335-72.243c29.642-42.805 61.782-83.7 96.213-122.547l94.869 84.138c31.113-35.064 64.352-68.236 99.415-99.323l-84.137-94.953c38.825-34.439 79.739-66.597 122.537-96.221l72.195 104.278c38.529-26.541 78.715-50.9 120.189-72.754l-59.209-112.347c45.851-24.173 93.323-45.665 142.229-64.268l45.163 118.867c43.728-16.535 88.646-30.564 134.182-41.743l-30.389-123.608c50.046-12.353 101.187-21.761 153.297-28.059l15.279 126.524c46.54-5.646 93.509-8.458 140.368-8.458v-127.473c52.65 0 104.521 3.25 155.513 9.399l-15.238 126.533c46.539 5.45 92.707 13.964 138.26 25.143l30.369-123.637c50.898 12.558 100.607 28.116 148.957 46.495l-45.125 118.885c43.82 16.619 86.635 35.949 128.221 57.748l59.059-112.393c46.111 24.296 90.584 51.311 133.215 80.821l-72.086 104.326c38.475 26.698 75.4 55.783 110.633 86.896l84.082-94.925c38.865 34.448 75.623 71.217 110.094 110.081l-94.836 84.167c31.041 35.083 60.049 72.083 86.768 110.651l104.314-72.261c29.514 42.656 56.529 87.147 80.881 133.297l-112.367 59.163c21.688 41.52 41.064 84.269 57.646 128.09l118.941-45.126c18.369 48.312 33.965 98.028 46.482 148.919l-123.561 30.406c11.086 45.563 19.6 91.76 25.096 138.337l126.543-15.314c6.15 51.021 9.391 102.938 9.391 155.607.001 711.971-579.261 1291.289-1291.251 1291.289zm-1036.601-1291.29c0 571.548 464.977 1036.62 1036.602 1036.62 571.566 0 1036.638-465.072 1036.638-1036.62v-.037h127.064c-.094-46.867-2.701-93.808-8.385-140.256l-126.283 15.055c-5.047-41.809-12.611-82.863-22.543-122.993l123.73-30.398c-11.234-45.57-25.207-90.426-41.863-134.199l-119.129 45.198c-14.922-39.144-32.121-77.179-51.459-113.893l112.941-59.396c-21.891-41.593-46.225-81.725-72.828-120.199l-105.025 72.569c-23.789-34.394-49.613-67.259-77.281-98.466l95.539-84.754c-31.113-35.064-64.314-68.236-99.34-99.323l-84.811 95.485c-31.188-27.648-64.053-53.453-98.428-77.255l72.605-105.126c-38.604-26.541-78.809-50.9-120.188-72.754l-59.398 112.999c-36.758-19.377-74.842-36.601-114.004-51.516l45.182-119.23c-43.84-16.535-88.758-30.564-134.201-41.743l-30.35 123.721c-40.168-9.921-81.232-17.476-123.059-22.526l15.148-126.337c-46.561-5.646-93.418-8.458-140.275-8.458v127.222c-42.313 0-84.046 2.609-125.053 7.546l-15.315-126.311c-46.41 5.45-92.671 13.964-138.188 25.143l30.35 123.721c-40.765 10.052-80.635 22.535-119.369 37.263l-45.162-119.24c-43.84 16.619-86.747 35.949-128.183 57.748l59.378 112.98c-37.04 19.516-72.773 41.203-106.999 64.901l-72.566-105.128c-38.566 26.698-75.495 55.783-110.596 86.896l84.716 95.504c-31.262 27.714-60.829 57.291-88.535 88.544l-95.596-84.726c-31.022 35.083-60.122 72.083-86.747 110.651l104.986 72.615c-23.698 34.216-45.366 69.942-64.892 106.991l-112.925-59.407c-21.816 41.52-41.156 84.269-57.756 128.09l119.24 45.246c-14.739 38.742-27.203 78.595-37.282 119.369l-123.749-30.416c-11.158 45.563-19.6 91.76-25.076 138.337l126.3 15.055c-4.953 41.071-7.58 82.854-7.58 125.238zm1036.601-976.451c538.404 0 976.458 437.973 976.458 976.451 0 538.366-438.055 976.442-976.458 976.442-538.461 0-976.425-438.076-976.425-976.442 0-538.478 437.964-976.451 976.425-976.451zm-1005.117 1329.96-63.885-46.299 31.151-72.513-26.177-95.019-184.747 25.338 26.159 95.019 83.803-11.458-25.283 84.81 65.173 59.937-77.862 33.033 26.196 95.074 171.65-72.903zm417.041 539.931-62.378-41.957-20.586-13.806-61.782-41.585-107.724 148.9 82.331 55.391 79.052-109.179 44.883 30.182c15.071 10.154 11.346 40.151-11.682 43.076-23.028 2.943-48.571-9.781-48.571-9.781l18.649 101.074 92.614 62.284-15.519-84.139s57.011 5.701 78.549-24.034c31.227-43.169-26.68-88.721-67.836-116.426zm129.114 267.898 85.218 30.089 57.162-157.843-85.218-30.09zm372.698-96.323c-81.473-6.372-151.674 30.983-156.742 83.394-5.068 52.427 56.953 99.993 138.429 106.383 81.53 6.335 151.714-30.927 156.763-83.393 5.068-52.429-56.938-100.031-138.45-106.384zm-11.868 122.798c-23.96-1.825-42.18-15.892-40.69-31.319 1.491-15.408 22.114-26.363 46.095-24.48 23.978 1.844 42.18 15.836 40.688 31.281-1.509 15.369-22.096 26.419-46.093 24.518zm-753.611-536.486-14.663-19.32-43.934-57.775-186.869 57.496 58.631 77.114 149.461-46.056-90.865 123.152 58.577 77.113 113.612-153.93zm1345.766 314.942-107.334 34.282-54.867 104.577-28.582-77.879-95.391 30.462 61.277 166.897 95.373-30.461-28.58-77.896 112.029 51.197 107.354-34.28-120.078-54.87zm170.699-121.978-19.693 14.588-58.949 43.765 65.453 177.275 78.623-58.315-52.354-141.858 131.068 83.449 78.643-58.353-163.861-104.279zm363.196-355.613c-45.496-29.399-91.33 28.096-119.109 68.897l-42.031 61.856-13.918 20.438-41.564 61.166 156.969 101.52 55.48-81.604-115.139-74.469 30.256-44.491c10.156-14.942 41.361-12.054 44.957 10.341 3.633 22.376-8.998 47.602-8.998 47.602l104.408-20.661 62.416-91.759-86.934 17.14c0 .001 4.582-55.706-26.793-75.976zm97.591-372.809-46.951-10.583-21.391 93.212-21.367 93.155-21.408 93.156 46.932 10.657 21.428-93.193 129.168 29.195 21.371-93.23-129.172-29.159zm-1215.219-787.234 89.802-47.165 89.746 47.165-17.178-99.975 72.736-70.846-100.496-14.532-44.808-91.013-44.995 91.013-100.402 14.532 72.737 70.846zm269.37-.159 54.328-17.382 45.182 34.887.258-57.049 47.178-32.231-54.199-17.803-16.023-54.794-33.723 46-57.121-1.751 33.387 46.374zm-458.774 17.505 45.162-34.887 54.384 17.382-19.319-53.75 33.329-46.374-57.084 1.751-33.667-46-16.042 54.794-54.162 17.803 47.12 32.231zm604.375 29.838 61.744 10.042 26.754 56.593 28.674-55.578 62.006-7.917-43.988-44.427 11.682-61.482-55.895 28.151-54.85-30.117 9.521 61.855zm-767.586 10.973 28.618 55.662 26.698-56.593 61.782-10.042-45.628-42.88 9.594-61.855-54.923 30.117-55.895-28.151 11.682 61.482-44.008 44.427zm510.032 502.894-66.35-108.788-68.989 108.788 68.989 100.673zm-831.215-191.296 92.878 43.531 50.75 95.998-24.22 56.303c-2.179 5.412-2.348 11.364-.336 16.861l49.243 132.533c2.086 5.738 6.372 10.358 11.96 12.818l41.047 18.258c11.699 47.23 58.704 247.664 78.9 483.814-16.674 14.197-33.666 39.945-27.723 76.611 3.522 21.371 13.06 70.277 17.923 93.156 11.999 57.142 47.621 67.314 68.86 73.369 2.125.559 4.008 1.192 5.853 1.714 18.108 5.627 194.713 45.219 396.823 45.219.579 0 1.044-.288 1.604-.327.578.039 1.042.327 1.623.327 202.238 0 378.809-39.592 396.768-45.219 1.883-.521 3.82-1.155 5.756-1.714 21.334-6.055 57.014-16.228 68.973-73.369 4.846-22.879 14.424-71.637 17.906-93.156 5.832-36.666-11.066-62.414-27.816-76.611 20.326-235.982 67.371-436.584 79.09-483.814l40.914-18.258c5.607-2.46 9.947-7.08 12.127-12.818l49.17-132.533c2.123-5.497 1.881-11.449-.393-16.861l-24.146-56.303 50.77-95.998 92.822-43.531c7.918-3.681 13.021-11.767 12.932-20.606l-.523-172.906c-.074-7.658-3.932-14.803-10.266-18.93-6.41-4.183-14.438-4.929-21.445-1.882l-160.266 68.73c-8.029 3.484-13.266 11.048-13.768 19.739l-5.252 99.007-110.205 107.223-33.387-62.257 50.787-61.417c5.943-7.164 6.951-17.179 2.498-25.33l-53.006-97.188c-3.316-6.056-9.129-10.248-15.818-11.385-6.688-1.369-13.639.551-18.93 4.91l-93.342 79.518c-6.521 5.607-9.41 14.384-7.396 22.722l14.662 59.088-82.088 77.375-136.512-185.92c-.838-1.155-2.049-1.788-3.035-2.768l61.854-68.87c.188-.242.205-.54.373-.791 9.799-10.005 10.322-25.963.912-36.424l-121.214-132.515c-5.607-6.176-13.434-8.701-21.146-8.244-7.715-.458-15.501 2.068-21.148 8.244l-121.194 132.515c-9.466 10.358-8.924 26.092.765 36.116.24.345.279.754.52 1.099l61.279 69.364c-.784.829-1.808 1.323-2.498 2.273l-136.49 185.902-81.978-77.357 14.532-59.088c2.05-8.338-.802-17.114-7.305-22.722l-93.454-79.518c-5.234-4.359-12.128-6.279-18.89-4.91-6.614 1.137-12.483 5.329-15.764 11.385l-53.061 97.188c-4.454 8.151-3.374 18.166 2.516 25.33l50.845 61.417-33.444 62.257-110.278-107.223-5.18-99.007c-.484-8.691-5.85-16.255-13.73-19.739l-160.247-68.73c-7.136-3.047-15.185-2.301-21.499 1.882-6.354 4.127-10.193 11.271-10.193 18.93l-.67 172.906c-.093 8.84 5.066 16.926 13.021 20.607zm32.942-159.045 115.718 49.661 4.957 93.873c.354 5.701 2.718 10.992 6.816 15.073l138.227 134.395c5.105 4.957 12.278 7.174 19.283 6.177 7.062-1.08 13.208-5.478 16.545-11.673l54.979-102.266c4.321-8.151 3.354-18.119-2.572-25.245l-50.73-61.335 32.249-59.125 61.503 52.232-14.384 58.333c-1.919 7.966.428 16.368 6.466 22.014l95.671 90.239-110.037 149.87-120.078-94.907c-4.694-4.257-11.831-4.006-16.151.587-4.25 4.677-4.062 11.784.596 16.061l121.79 134.713c9.093 8.421 22.229 8.84 32.12 2.478 3.987-1.826 7.584-4.565 10.268-8.311l283.062-385.413 8.685 9.818c3.688 5.077 10.805 6.121 15.872 2.469 5.014-3.753 6.13-10.899 2.479-15.91l-72.215-122.323 89.487-97.861 89.41 97.748-73.07 121.662c-3.707 5.059-2.684 12.186 2.402 15.875 5.051 3.697 12.223 2.626 15.875-2.46l9.018-10.032 283.678 386.428c2.758 3.708 6.314 6.447 10.248 8.265 9.967 6.408 23.158 6.008 32.193-2.432l122.668-133.8c4.676-4.222 4.955-11.459.65-15.995-4.32-4.611-11.477-4.899-16.17-.616l-120.824 94.182-110.201-150.074 95.688-90.259c5.889-5.646 8.516-14.048 6.445-22.014l-14.252-58.333 61.408-52.232 32.215 59.125-50.715 61.335c-5.941 7.126-6.912 17.094-2.439 25.245l54.811 102.266c3.393 6.195 9.504 10.593 16.582 11.673 7.025 1.072 14.162-1.22 19.189-6.177l138.338-134.395c4.025-4.081 6.576-9.372 6.746-15.073l5.01-93.873 115.775-49.661.445 124.046-86.596 40.616c-4.455 2.068-8.125 5.561-10.436 9.985l-59.432 112.347c-3.168 6.008-3.465 13.182-.67 19.488l5.402 12.65-42.648 80.654-17.623 96.09-5.385 2.395c-6.408 2.888-10.992 8.384-12.82 15.036-.633 2.329-61.352 236.15-83.969 515.114-.727 8.812 4.117 17.42 11.773 21.798 2.273 1.249 21.576 12.948 17.496 38.251-3.262 20.195-12.781 68.469-17.496 91.088-6.428 30.424-19.172 34.001-36.852 39.031-2.496.746-4.789 1.398-7.041 2.013-17.105 5.366-186.535 43.188-383.188 43.188-.58 0-1.044.279-1.623.325-.56-.046-1.024-.325-1.604-.325-196.577 0-366.046-37.821-383.224-43.188-2.291-.614-4.621-1.267-6.985-2.013-17.683-5.03-30.521-8.607-36.872-39.031-4.846-22.73-14.252-71.059-17.44-91.088-4.189-25.357 15.185-37.002 17.161-38.156 7.975-4.156 12.743-12.819 11.962-21.893-22.583-278.964-83.301-512.785-83.954-515.114-1.694-6.652-6.372-12.148-12.743-15.036l-5.439-2.422-17.683-96.062-42.59-80.646 5.404-12.659c2.718-6.307 2.516-13.48-.747-19.488l-59.321-112.347c-2.253-4.425-5.961-7.917-10.415-9.985l-86.579-40.616zm603.203 899.736c-12.874-6.764-4.937 8.7-24.092 27.184-18.333 17.419-31.15 10.545-27.032 22.376 3.688 11.458 36.182-3.745 36.182-3.745s48.589 64.389 142.306 64.389c93.769 0 142.396-64.389 142.396-64.389s32.363 15.203 36.238 3.745c3.969-11.831-8.682-4.957-27.107-22.376-19.061-18.483-11.197-33.947-24.09-27.184-9.541 4.918 4.268 32.791 4.268 32.791s-52.242 53.006-131.705 53.006c-79.388 0-131.63-53.006-131.63-53.006s13.786-27.873 4.266-32.791zm-42.088-77.338c34.689 0 62.769-54.347 62.769-121.27 0-66.886-28.079-121.121-62.769-121.121-34.636 0-62.749 54.235-62.749 121.121 0 66.923 28.113 121.27 62.749 121.27zm0-217.22c16.266 0 29.548 25.505 29.548 57.086 0 31.486-13.282 57.029-29.548 57.029-16.359 0-29.662-25.543-29.662-57.029 0-31.581 13.303-57.086 29.662-57.086zm339.031 217.22c34.652 0 62.713-54.347 62.713-121.27 0-66.886-28.061-121.121-62.713-121.121-34.746 0-62.695 54.235-62.695 121.121-.001 66.923 27.949 121.27 62.695 121.27zm0-217.22c16.377 0 29.605 25.505 29.605 57.086 0 31.486-13.229 57.029-29.605 57.029-16.34 0-29.51-25.543-29.51-57.029 0-31.581 13.17-57.086 29.51-57.086zm-512.227 470.94c9.968 3.018 22.023 6.8 35.939 10.955 7.005 2.181 14.571 4.415 22.414 6.801 7.881 2.234 16.303 3.353 24.947 5.216 17.512 3.54 36.424 7.248 56.546 10.415 10.153 1.788 20.549 3.503 31.133 5.31 10.602 2.198 21.463 1.882 32.565 3.037 22.21 1.49 45.052 3.819 68.434 4.527 23.307 1.062 47.025 2.181 70.761 3.297 23.664-1.116 47.416-2.234 70.8-3.297 23.119-.951 45.775-3.093 67.705-4.527 21.742-.802 43.408-4.844 63.736-8.347 20.326-3.167 39.479-6.931 56.992-10.435 8.793-1.899 17.217-3.073 25.043-5.29 7.859-2.292 15.258-4.621 22.279-6.707 13.865-4.304 25.918-7.938 35.979-10.862 9.949-2.646 17.42-6.763 22.619-8.7 5.178-2.144 7.953-3.262 7.953-3.262l-.875-2.851s-2.775.652-8.197 1.827c-5.311 1.192-13.023 3.446-23.213 4.937-10.08 1.715-22.283 3.894-36.406 6.279-6.969 1.174-14.496 2.459-22.375 3.781-7.938 1.192-16.303 1.752-25.021 2.74-17.533 1.73-36.424 3.669-56.436 5.682-20.029 2.105-40.953 4.564-62.994 4.62-43.967 1.342-90.844 2.776-137.589 4.174-46.875-1.397-93.621-2.832-137.571-4.174-21.93-.056-43.058-2.515-63.068-4.62-20.047-2.013-38.994-3.951-56.472-5.682-8.661-.988-17.141-1.548-24.964-2.74-7.938-1.322-15.41-2.607-22.415-3.781-14.104-2.386-26.345-4.436-36.424-6.279-10.06-1.49-17.754-3.744-23.196-4.937-5.382-1.175-8.233-1.827-8.233-1.827l-.782 2.851s2.758 1.192 7.844 3.262c5.29 2.03 12.426 6.036 22.542 8.607zm294.672-585.261c12.538 18.314 29.528 28.338 47.976 28.338 18.462 0 35.529-10.023 48.55-29.12l51.125-89.802c24.055-35.335 24.055-60.292.467-94.861l-52.076-91.312c-12.537-18.323-29.604-28.412-48.066-28.412-18.447 0-35.438 10.089-48.479 29.187l-50.993 89.747c-24.146 35.36-24.146 60.317-.521 94.879zm-32.177-174.164 50.976-89.72c8.065-11.971 18.538-18.538 29.177-18.538 10.824 0 21.183 6.567 28.802 17.681l52.055 91.34c18.818 27.509 18.818 42.555-.482 70.799l-51.123 89.774c-8.068 11.914-18.428 18.473-29.251 18.473-10.639 0-21.111-6.559-28.692-17.737l-52.039-91.349c-18.818-27.405-18.818-42.451.577-70.723zm836.632-4.994c5.236 34.141 23.998 59.462 35.01 71.889-.131 26.931-1.586 59.387-5.572 96.107-2.719-13.125-7.582-27.75-16.469-41.816-25.152-39.917-61.633-43.263-61.633-43.263s-12.707 34.348 12.465 74.237c18.611 29.483 46.932 44.687 60.457 50.639-3.744 25.135-8.699 51.785-15.186 79.742-2.494-16.042-8.365-36.741-21.852-55.82-27.166-38.528-63.775-39.926-63.775-39.926s-10.881 34.971 16.322 73.444c20.158 28.533 49.334 42.256 63.121 47.473-7.322 28.339-16.227 57.784-27.033 88.106-1.957-16.61-7.396-39.805-22.527-61.223-27.219-38.529-63.828-39.982-63.828-39.982s-10.844 34.99 16.359 73.5c19.99 28.283 48.793 41.978 62.729 47.295-12.127 31.936-26.361 64.67-43.092 97.927.131-18.612-2.76-45.628-16.809-71.666-24.869-46.111-65.076-52.632-65.076-52.632s-16.639 37.168 8.215 83.317c18.447 34.18 48.871 53.23 63.402 60.812-17.084 32.26-36.59 64.893-58.725 97.647 2.664-19.509 3.633-51.115-9.67-82.891-21.52-51.255-63.273-62.247-63.273-62.247s-21.441 37.542.057 88.777c16.604 39.62 48.609 63.178 62.359 71.888-14.959 21.324-31.076 42.666-48.441 63.951l-.932 1.192c-2.533 3.075-2.086 7.64 1.006 10.174 1.342 1.118 2.965 1.658 4.584 1.658 2.105 0 4.174-.913 5.607-2.683l.949-1.138c6.281-7.693 12.225-15.407 18.186-23.12 15.184 6.418 60.496 22.524 110.818 10.918 61.836-14.234 82.33-59.099 82.33-59.099s-38.025-31.394-99.92-17.142c-30.105 6.949-54.195 22.013-71.057 35.651 18.742-25.971 35.902-51.935 51.367-77.748 14.867 5.591 56.377 18.286 101.576 6.195 56.488-15.091 73.91-57.066 73.91-57.066s-36.07-27.705-92.543-12.577c-30.686 8.217-53.936 25.395-69.047 39.489 15.949-28.227 29.979-56.191 42.461-83.757 15.109 3.781 53.23 10.554 92.318-4.453 50.303-19.282 62.227-59.433 62.227-59.433s-35.68-21.854-86.002-2.553c-25.449 9.763-44.398 26.13-56.973 39.955 11.029-26.28 20.754-52.141 29.064-77.32 13.414 1.081 50.25 1.724 84.289-18.714 42.553-25.526 46.949-63.831 46.949-63.831s-35.883-14.142-78.438 11.384c-20.699 12.437-34.914 29.437-44.176 43.661 8.555-28.505 15.502-56.061 21.109-82.442 13.639-.596 50.045-4.536 81.158-28.813 39.125-30.555 38.789-69.083 38.789-69.083s-37.336-9.68-76.424 20.885c-18.166 14.179-29.977 31.774-37.506 46.605 5.014-27.574 8.533-53.528 11.031-77.692 12.037-3.856 47.342-17.485 71.301-50.313 29.25-40.085 18.354-77.086 18.354-77.086s-38.549.932-67.781 41.035c-8.348 11.448-13.992 23.484-17.885 34.868.801-16.274 1.154-31.271 1.172-44.854 6.762-15.66 16.117-44.463 11.066-77.311-7.545-49.064-41.342-67.622-41.342-67.622s-26.677 27.849-19.13 76.895zm-1339.841 701.363c5.961 7.712 11.904 15.426 18.183 23.129l.952 1.138c1.435 1.77 3.502 2.683 5.587 2.683 1.641 0 3.263-.54 4.621-1.658 3.074-2.534 3.542-7.099.989-10.174l-.933-1.192c-17.363-21.285-33.48-42.627-48.44-63.951 13.75-8.71 45.739-32.278 62.358-71.888 21.499-51.235.074-88.777.074-88.777s-41.771 10.992-63.291 62.247c-13.321 31.766-12.352 63.373-9.668 82.87-22.136-32.743-41.641-65.376-58.728-97.617 14.534-7.583 44.94-26.643 63.385-60.822 24.873-46.149 8.217-83.317 8.217-83.317s-40.206 6.521-65.062 52.632c-14.047 26.047-16.936 53.062-16.805 71.675-16.73-33.266-30.966-66-43.075-97.936 13.936-5.328 42.701-19.021 62.694-47.295 27.221-38.51 16.357-73.5 16.357-73.5s-36.63 1.453-63.83 39.982c-15.11 21.408-20.532 44.594-22.506 61.194-10.807-30.313-19.714-59.75-27.035-88.088 13.807-5.227 42.964-18.948 63.143-47.463 27.2-38.474 16.302-73.444 16.302-73.444s-36.611 1.397-63.775 39.926c-13.487 19.051-19.356 39.713-21.872 55.746-6.466-27.93-11.42-54.554-15.168-79.668 13.527-5.952 41.847-21.165 60.459-50.639 25.173-39.89 12.446-74.237 12.446-74.237s-36.461 3.346-61.613 43.263c-8.888 14.066-13.73 28.683-16.471 41.799-3.985-36.723-5.439-69.168-5.57-96.1 11.012-12.428 29.756-37.747 34.989-71.879 7.547-49.046-19.135-76.892-19.135-76.892s-33.777 18.558-41.324 67.622c-5.048 32.856 4.305 61.68 11.069 77.329.018 13.581.371 28.589 1.192 44.863-3.896-11.393-9.54-23.438-17.905-34.896-29.251-40.104-67.78-41.035-67.78-41.035s-10.881 37.001 18.351 77.086c24.223 33.174 59.657 46.598 71.285 50.286 2.495 24.175 6.035 50.127 11.046 77.71-7.526-14.83-19.337-32.417-37.502-46.596-39.091-30.564-76.428-20.885-76.428-20.885s-.334 38.528 38.791 69.083c31.114 24.277 67.538 28.218 81.156 28.813 5.61 26.372 12.541 53.929 21.092 82.424-9.241-14.225-23.456-31.216-44.156-43.643-42.57-25.525-78.418-11.384-78.418-11.384s4.378 38.305 46.913 63.831c34.04 20.438 70.872 19.795 84.306 18.714 8.311 25.161 18.017 51.003 29.028 77.263-12.558-13.813-31.507-30.153-56.919-39.897-50.322-19.302-86.002 2.553-86.002 2.553s11.904 40.15 62.21 59.433c39.07 14.998 77.188 8.234 92.316 4.463 12.483 27.564 26.533 55.539 42.462 83.784-15.091-14.104-38.324-31.3-69.047-39.526-56.471-15.128-92.524 12.577-92.524 12.577s17.421 41.976 73.893 57.066c45.217 12.101 86.729-.615 101.56-6.205 15.481 25.833 32.659 51.806 51.403 77.795-16.861-13.655-40.971-28.729-71.097-35.688-61.856-14.252-99.92 17.142-99.92 17.142s20.495 44.864 82.351 59.099c50.323 11.605 95.652-4.511 110.819-10.928z" fill="#00acd0"/></svg>