<svg enable-background="new 0 0 2704.018 2704.018" height="2704.018" viewBox="0 0 2704.018 2704.018" width="2704.018" xmlns="http://www.w3.org/2000/svg"><path d="m1351.972 0c-745.545 0-1351.972 606.445-1351.972 1352.027 0 745.451 606.427 1351.99 1351.972 1351.99 745.472 0 1352.046-606.539 1352.046-1351.99 0-745.582-606.575-1352.027-1352.046-1352.027zm0 2643.317c-712.047 0-1291.216-579.318-1291.216-1291.29v-.037h127.437c.021-46.867 2.758-93.808 8.479-140.256l-126.526-15.314c6.297-52.149 15.725-103.356 28.059-153.429l123.524 30.406c11.235-45.57 25.189-90.426 41.771-134.199l-118.812-45.098c18.593-48.879 40.058-96.313 64.221-142.146l112.384 59.154c21.799-41.593 46.094-81.725 72.812-120.199l-104.335-72.242c29.624-42.805 61.781-83.7 96.212-122.547l94.869 84.138c31.113-35.064 64.352-68.236 99.436-99.323l-84.157-94.953c38.826-34.439 79.74-66.597 122.537-96.221l72.214 104.278c38.529-26.541 78.698-50.9 120.172-72.754l-59.193-112.347c45.833-24.173 93.307-45.665 142.193-64.268l45.181 118.867c43.729-16.535 88.647-30.564 134.201-41.743l-30.406-123.608c50.044-12.353 101.205-21.761 153.297-28.059l15.314 126.524c46.503-5.646 93.491-8.458 140.349-8.458v-127.473c52.634 0 104.504 3.25 155.496 9.399l-15.259 126.533c46.561 5.45 92.747 13.964 138.3 25.143l30.35-123.637c50.9 12.558 100.628 28.116 148.976 46.495l-45.145 118.885c43.839 16.619 86.635 35.949 128.201 57.748l59.062-112.393c46.131 24.296 90.622 51.311 133.25 80.821l-72.103 104.326c38.493 26.698 75.419 55.783 110.631 86.896l84.083-94.925c38.865 34.448 75.626 71.217 110.094 110.081l-94.835 84.167c31.042 35.083 60.05 72.083 86.767 110.651l104.314-72.261c29.551 42.656 56.546 87.147 80.88 133.297l-112.366 59.163c21.707 41.52 41.064 84.269 57.663 128.09l118.924-45.126c18.39 48.312 33.966 98.028 46.503 148.919l-123.561 30.406c11.086 45.563 19.6 91.76 25.078 138.337l126.542-15.314c6.148 51.021 9.389 102.938 9.389 155.607 0 711.971-579.281 1291.289-1291.251 1291.289zm-1036.602-1291.29c0 571.548 464.96 1036.62 1036.602 1036.62 571.604 0 1036.639-465.072 1036.639-1036.62v-.037h127.064c-.074-46.867-2.721-93.808-8.383-140.256l-126.282 15.055c-5.068-41.809-12.595-82.863-22.509-122.993l123.713-30.398c-11.255-45.57-25.227-90.426-41.866-134.199l-119.146 45.198c-14.905-39.144-32.102-77.179-51.458-113.893l112.94-59.396c-21.873-41.593-46.204-81.725-72.828-120.199l-105.023 72.569c-23.774-34.394-49.615-67.259-77.264-98.466l95.521-84.754c-31.114-35.064-64.315-68.236-99.342-99.323l-84.807 95.485c-31.171-27.648-64.056-53.453-98.411-77.255l72.587-105.126c-38.604-26.541-78.791-50.9-120.209-72.754l-59.378 112.999c-36.758-19.377-74.841-36.601-114.004-51.516l45.181-119.23c-43.838-16.535-88.777-30.564-134.181-41.743l-30.368 123.721c-40.151-9.921-81.214-17.476-123.042-22.526l15.11-126.337c-46.54-5.646-93.417-8.458-140.237-8.458v127.222h-.018c-42.33 0-84.027 2.609-125.053 7.546l-15.278-126.311c-46.466 5.45-92.708 13.964-138.205 25.143l30.33 123.721c-40.765 10.052-80.634 22.535-119.368 37.263l-45.163-119.24c-43.819 16.619-86.746 35.949-128.182 57.748l59.378 112.98c-37.021 19.516-72.737 41.203-106.98 64.901l-72.569-105.128c-38.584 26.698-75.512 55.783-110.594 86.896l84.696 95.504c-31.244 27.714-60.83 57.291-88.535 88.544l-95.597-84.726c-31.002 35.083-60.122 72.083-86.746 110.651l104.968 72.615c-23.681 34.216-45.348 69.942-64.873 106.991l-112.906-59.407c-21.835 41.52-41.155 84.269-57.793 128.09l119.238 45.246c-14.718 38.742-27.2 78.595-37.262 119.369l-123.748-30.416c-11.159 45.563-19.6 91.76-25.059 138.337l126.301 15.055c-4.956 41.071-7.601 82.854-7.601 125.238zm1036.602-976.451c538.404 0 976.46 437.973 976.46 976.451 0 538.366-438.056 976.442-976.46 976.442-538.44 0-976.424-438.076-976.424-976.442 0-538.478 437.983-976.451 976.424-976.451zm-1005.116 1329.96-63.869-46.299 31.134-72.513-26.177-95.019-184.747 25.338 26.159 95.019 83.82-11.458-25.301 84.81 65.19 59.937-77.878 33.033 26.195 95.074 171.65-72.903zm417.04 539.931-62.377-41.957-20.568-13.806-61.781-41.585-107.727 148.9 82.331 55.391 79.034-109.179 44.901 30.182c15.072 10.154 11.347 40.151-11.683 43.076-23.065 2.943-48.552-9.781-48.552-9.781l18.631 101.074 92.597 62.284-15.52-84.139s57.011 5.701 78.55-24.034c31.246-43.169-26.661-88.721-67.836-116.426zm129.134 267.898 85.218 30.089 57.142-157.843-85.218-30.09zm372.679-96.323c-81.456-6.372-151.695 30.983-156.744 83.394-5.05 52.427 56.955 99.993 138.448 106.383 81.529 6.335 151.695-30.927 156.764-83.393 5.066-52.429-56.938-100.031-138.468-106.384zm-11.849 122.798c-23.979-1.825-42.183-15.892-40.729-31.319 1.49-15.408 22.152-26.363 46.113-24.48 23.978 1.844 42.18 15.836 40.689 31.281-1.471 15.369-22.095 26.419-46.073 24.518zm-753.631-536.486-14.662-19.32-43.951-57.775-186.835 57.496 58.613 77.114 149.461-46.056-90.864 123.152 58.595 77.113 113.574-153.93zm1345.767 314.942-107.315 34.282-54.888 104.577-28.581-77.879-95.372 30.462 61.278 166.897 95.354-30.461-28.58-77.896 112.047 51.197 107.354-34.28-120.097-54.87zm170.698-121.978-19.675 14.588-58.968 43.765 65.452 177.275 78.624-58.315-52.354-141.858 131.088 83.449 78.624-58.353-163.842-104.279zm363.198-355.613c-45.499-29.399-91.332 28.096-119.109 68.897l-42.033 61.856-13.898 20.438-41.604 61.166 156.987 101.52 55.482-81.604-115.14-74.469 30.275-44.491c10.153-14.942 41.344-12.054 44.957 10.341 3.614 22.376-8.998 47.602-8.998 47.602l104.409-20.661 62.396-91.759-86.935 17.14c.001.001 4.603-55.706-26.789-75.976zm97.627-372.809-46.988-10.583-21.388 93.212-42.778 186.312 46.951 10.657 21.388-93.193 129.188 29.195 21.389-93.23-129.169-29.159zm-1090.52 572.125-34.99-71.077-35.009 71.077-78.288 11.31 56.564 55.241-13.283 78.009 70.016-36.777 70.017 36.777-13.359-78.009 56.583-55.241zm-208.371 44.25-60.254 15.091-46.579-41.045-4.248 61.912-53.471 31.617 57.607 23.196 13.526 60.588 39.871-47.584 61.817 5.813-32.938-52.597zm453.519-25.955-46.541 41.045-60.235-15.091 24.65 56.992-32.959 52.597 61.836-5.813 39.834 47.584 13.563-60.588 57.57-23.196-53.435-31.617zm-422.834-615.518c44.136.467 51.57-75.046 51.57-167.67 0-92.69.055-172.981-50.174-168.352-43.672 4.005-53.584 72.168-53.584 164.811.001 92.56 5.944 170.727 52.188 171.211zm-17.235-296.226c4.751-11.83 12.223-17.645 20.085-17.626 7.769.019 15.054 4.799 19.712 16.471 3.781 9.502 5.701 24.426 5.646 37.859-.02 13.088-2.367 28.271-6.038 37.643-4.713 12.064-11.756 16.535-19.674 16.508-7.917-.027-15.073-4.443-19.73-16.423-3.651-9.409-5.682-24.724-5.664-37.886.056-13.304 1.899-27.137 5.663-36.546zm307.582 296.226c46.224-.483 52.187-78.65 52.187-171.211 0-92.643-9.911-160.806-53.603-164.811-50.211-4.63-50.174 75.661-50.174 168.352 0 92.624 7.435 168.137 51.59 167.67zm-28.225-259.522c-.037-13.434 1.899-28.357 5.664-37.859 4.658-11.672 11.924-16.452 19.711-16.471 7.863-.019 15.354 5.796 20.048 17.626 3.802 9.409 5.645 23.242 5.664 36.546.056 13.162-1.976 28.477-5.664 37.886-4.62 11.979-11.775 16.396-19.674 16.423-7.975.027-14.979-4.443-19.694-16.508-3.671-9.371-6.018-24.555-6.055-37.643zm-776.1 159.278c80.708 74.105 163.767 143.936 196.111 170.856-10.36 40.69-36.48 145.696-58.353 252.919-26.085 127.996-35.326 204.477-35.326 251.409 0 51.907 11.291 67.594 23.364 76.76 24.444 18.444 68.432 25.059 309.762-110.986 95.951-54.067 188.548-111.637 224.207-134.088 35.363 22.246 126.768 79.071 221.749 132.69 238.144 134.518 283.642 129.488 307.638 114.172 14.012-8.942 26.531-24.405 26.531-79.144 0-47.36-9.353-124.048-35.102-251.298-22.06-109.03-48.553-216.104-59.022-257.334 32.157-26.549 114.022-95.02 193.651-167.681 169.061-154.312 201.066-209.694 201.066-240.528 0-5.887-1.172-10.853-2.755-15.464-9.839-28.385-42.294-58.753-315.501-90.642-108.695-12.706-216.531-20.68-258.434-23.568-15.352-38.984-55.428-138.988-100.402-238.245-113.204-250.003-154.193-270.944-183.74-270.944-29.551 0-70.596 20.96-184.822 271.186-45.387 99.417-85.872 199.56-101.41 238.582-41.641 2.683-148.284 10.117-255.862 22.265-270.822 30.583-303.8 62.21-313.431 89.438-1.66 4.695-2.89 9.771-2.89 15.781.001 31.142 32.495 87.314 202.971 243.864zm-142.976-239.85c3.539-18.146 70.312-30.788 277.473-53.405 130.177-14.206 255.247-21.426 256.496-21.519 11.29-.634 21.202-7.826 25.301-18.352.448-1.184 46.393-118.793 100.683-238.992 87.008-192.637 117.749-248.998 138.393-248.764 22.711-.15 55.986 55.427 137.945 245.14 33.611 77.729 68.824 163.525 99.081 241.842 4.062 10.535 13.899 17.754 25.188 18.454 1.249.083 127.438 7.965 258.713 22.794 208.408 23.552 274.549 37.523 279.916 54.497 4.769 17.747-39.125 66.206-191.789 204.431-96.361 87.278-192.722 165.865-193.672 166.646-6.839 5.59-10.638 13.844-10.638 22.413 0 2.423.296 4.882.93 7.304.316 1.211 32.27 124.755 59.435 255.266 37.355 179.455 56.396 270.283 35.286 285.336-20.829 12.465-85.628-21.016-258.097-121.009-114.266-66.196-221.32-133.232-222.381-133.884-9.483-6.092-21.632-6.092-31.134 0-1.062.651-108.006 68.713-223.052 134.35-169.246 96.584-236.691 138.989-259.049 120.806-18.146-14.57 4.657-135.059 35.418-282.953 26.885-129.355 58.855-251.706 59.154-252.918.634-2.459.95-4.9.95-7.358 0-8.533-3.782-16.77-10.564-22.32-1.007-.82-98.521-80.897-196-169.703-155.327-141.43-197.676-188.194-193.986-208.102zm135.597-170.307c8.867-13.937 18.034-27.184 27.388-40.02 11.999 9.25 41.566 28.812 80.71 31.905 51.608 4.099 78.923-23.708 78.923-23.708s-21.427-31.673-72.998-35.726c-32.324-2.542-60.477 6.968-76.983 14.439 21.164-27.854 43.299-53.099 65.842-75.913 12.297 9.399 41.697 28.553 80.395 31.627 51.552 4.09 78.903-23.717 78.903-23.717s-21.444-31.665-73.054-35.727c-27.779-2.189-52.428 4.565-69.288 11.272 22.822-21.743 45.944-41.083 68.822-58.288 13.004 8.869 43.15 26.158 81.53 27.295 51.775 1.565 77.507-27.546 77.507-27.546s-23.179-30.556-74.974-32.074c-17.996-.559-34.411 2.59-48.272 6.894 32.12-21.472 63.047-38.817 91.312-52.726 18.127 3.231 52.278 6.316 87.007-6.54 50.846-18.827 62.75-56.899 62.75-56.899s-36.219-20.281-87.062-1.463c-34.878 12.893-57.701 37.169-68.619 51.181-12.222 6.008-24.947 12.632-38.045 19.935 7.582-8.7 14.792-18.911 20.419-30.76 22.152-46.717 1.883-81.306 1.883-81.306s-41.231 9.558-63.347 56.293c-16.898 35.725-12.465 71.469-9.446 86.374-21.314 13.955-43.113 29.68-65.041 47.379 8.999-13.861 17.644-31.869 20.849-52.987 7.676-50.471-22.06-78.53-22.06-78.53s-36.89 19.749-44.491 70.258c-5.926 39.339 9.502 72.987 16.619 86.011-20.42 18.193-40.729 38.241-60.57 60.198 6.205-16.582 11.532-39.266 8.253-64.25-6.632-50.509-43.112-70.351-43.112-70.351s-30.238 27.946-23.624 78.484c5.068 38.52 28.432 66.877 39.274 78.196-21.276 25.365-41.79 52.959-61.092 83.3zm53.174 940.763 11.252-10.807c-10.619-12.65-20.493-25.412-29.939-38.137 12.465-8.665 39.982-30.985 54.682-67.446 19.414-47.938 1.101-82.387 1.101-82.387s-36.648 10.974-56.024 58.911c-12.11 30.09-11.514 59.771-9.334 77.786-20.215-28.562-37.653-57.235-52.596-85.647 12.633-8.851 39.722-31.132 54.29-67.166 19.377-47.938 1.044-82.368 1.044-82.368s-36.592 10.955-56.005 58.93c-10.435 25.898-11.384 51.387-10.061 69.496-13.861-28.283-25.376-56.137-34.896-83.188 12.352-9.744 37.876-33.294 50.489-69.531 17.065-48.927-2.962-82.22-2.962-82.22s-36.107 12.911-53.117 61.893c-5.926 16.973-7.844 33.629-7.956 48.123-10.806-37.075-18.072-71.822-22.861-102.936 8.552-16.303 21.743-47.977 19.918-84.959-2.702-54.152-35.437-76.919-35.437-76.919s-30.221 28.431-27.52 82.603c1.809 37.131 18.128 66.195 28.19 80.803 2.049 13.471 4.583 27.592 7.582 42.292-6.018-9.874-13.582-19.823-23.215-28.729-37.914-35.156-76.965-26.232-76.965-26.232s-3.278 42.2 34.654 77.338c29.009 26.83 64.407 33.35 79.555 34.934 6.912 24.538 15.352 50.062 25.656 76.295-10.527-12.726-25.079-26.419-44.287-35.791-45.833-22.487-81.493-2.59-81.493-2.59s7.732 41.119 53.621 63.57c35.734 17.458 72.476 12.893 87.007 9.969 11.255 24.965 24.257 50.359 39.237 75.865-13.955-10.898-33.983-22.805-58.8-27.146-50.174-8.887-80.04 19.974-80.04 19.974s17.551 37.226 67.743 46.112c38.269 6.726 72.326-7.024 86.374-14.011 17.813 27.907 37.972 55.798 61.113 83.316zm872.125-1229.313c34.766 12.855 68.898 9.771 87.045 6.54 28.245 13.908 59.174 31.253 91.311 52.726-13.861-4.304-30.293-7.453-48.31-6.894-51.759 1.519-74.953 32.074-74.953 32.074s25.747 29.111 77.524 27.546c38.36-1.137 68.487-18.426 81.511-27.295 22.898 17.206 46 36.545 68.843 58.288-16.861-6.708-41.51-13.461-69.309-11.272-51.609 4.062-73.053 35.727-73.053 35.727s27.332 27.807 78.903 23.717c38.716-3.074 68.115-22.228 80.412-31.627 22.544 22.814 44.677 48.06 65.842 75.913-16.524-7.472-44.658-16.981-76.983-14.439-51.571 4.053-73.033 35.726-73.033 35.726s27.331 27.807 78.958 23.708c39.125-3.093 68.712-22.655 80.71-31.905 9.353 12.836 18.52 26.083 27.389 40.02l13.676-7.489c-19.303-30.341-39.835-57.935-61.074-83.3 10.844-11.318 34.208-39.676 39.256-78.196 6.614-50.538-23.605-78.484-23.605-78.484s-36.479 19.842-43.113 70.351c-3.297 24.984 2.051 47.668 8.236 64.25-19.824-21.957-40.132-42.004-60.569-60.198 7.134-13.024 22.562-46.671 16.599-86.011-7.601-50.509-44.473-70.258-44.473-70.258s-29.716 28.059-22.041 78.53c3.169 21.118 11.851 39.126 20.85 52.987-21.93-17.699-43.729-33.424-65.042-47.379 3-14.905 7.415-50.649-9.464-86.374-22.135-46.736-63.348-56.293-63.348-56.293s-20.251 34.589 1.902 81.306c5.607 11.849 12.817 22.06 20.418 30.76-13.097-7.303-25.822-13.927-38.044-19.935-10.918-14.012-33.76-38.288-68.618-51.181-50.845-18.818-87.063 1.463-87.063 1.463s11.884 38.072 62.71 56.898zm519.791 876.438c3-14.7 5.516-28.821 7.564-42.292 10.079-14.607 26.364-43.672 28.207-80.803 2.666-54.172-27.518-82.603-27.518-82.603s-32.753 22.767-35.438 76.919c-1.825 36.982 11.366 68.656 19.899 84.959-4.769 31.113-12.036 65.86-22.88 102.936-.074-14.494-1.993-31.15-7.917-48.123-17.01-48.981-53.117-61.893-53.117-61.893s-20.048 33.293-2.983 82.22c12.595 36.237 38.158 59.787 50.511 69.531-9.54 27.052-21.054 54.905-34.896 83.188 1.304-18.109.334-43.598-10.062-69.496-19.414-47.975-56.023-58.93-56.023-58.93s-18.313 34.431 1.062 82.368c14.55 36.034 41.659 58.315 54.291 67.166-14.979 28.412-32.381 57.086-52.596 85.647 2.161-18.016 2.775-47.696-9.335-77.786-19.377-47.938-56.042-58.911-56.042-58.911s-18.296 34.449 1.1 82.387c14.719 36.461 42.236 58.781 54.7 67.446-9.483 12.725-19.32 25.486-29.977 38.137l11.29 10.807c23.141-27.519 43.299-55.409 61.11-83.318 14.011 6.986 48.104 20.736 86.374 14.011 50.174-8.887 67.743-46.112 67.743-46.112s-29.885-28.86-80.039-19.974c-24.818 4.342-44.883 16.248-58.801 27.146 14.979-25.506 27.984-50.9 39.238-75.865 14.532 2.924 51.272 7.489 87.007-9.969 45.869-22.451 53.621-63.57 53.621-63.57s-35.662-19.897-81.512 2.59c-19.189 9.372-33.761 23.065-44.287 35.791 10.321-26.233 18.743-51.757 25.674-76.295 15.128-1.584 50.527-8.104 79.557-34.934 37.933-35.138 34.652-77.338 34.652-77.338s-39.068-8.924-76.983 26.232c-9.612 8.908-17.214 18.857-23.194 28.731z" fill="#00acd0"/></svg>